<svg version="1.1" xmlns="http://www.w3.org/2000/svg" xmlns:xlink="http://www.w3.org/1999/xlink" width="69" height="68"><defs/><g><path fill="rgb(49,114,185)" stroke="none" paint-order="stroke fill markers" fill-rule="evenodd" d=" M 44.61279881000519 32.98993635177612 C 44.61279881000519 32.98993635177612 47.474914848804474 30.12809133529663 47.474914848804474 30.12809133529663 C 47.64406782388687 30.141421675682068 47.81459677219391 30.147987365722656 47.98613476753235 30.147987365722656 C 49.69197463989258 30.147987365722656 51.29571729898453 29.48385787010193 52.50189542770386 28.27815842628479 C 52.50189542770386 28.27815842628479 55.22723972797394 25.552800178527832 55.22723972797394 25.552800178527832 C 57.71710914373398 23.062613010406494 57.71710914373398 19.011980175971985 55.22733145952225 16.522190928459167 C 55.22733145952225 16.522190928459167 42.57369822263718 3.870504140853882 42.57369822263718 3.870504140853882 C 41.36752009391785 2.6644067764282227 39.7637774348259 1.9996803998947144 38.05793756246567 1.9996803998947144 C 36.35209769010544 1.9996803998947144 34.7484467625618 2.6644067764282227 33.54226863384247 3.8701062202453613 C 33.54226863384247 3.8701062202453613 30.81683260202408 6.595265507698059 30.81683260202408 6.595265507698059 C 29.44278573989868 7.968887448310852 28.827083587646484 9.818621397018433 28.96945095062256 11.61861526966095 C 28.96945095062256 11.61861526966095 11.61741954088211 28.96855068206787 11.61741954088211 28.96855068206787 C 11.448358297348022 28.955419301986694 11.277829349040985 28.948853611946106 11.106291353702545 28.948853611946106 C 9.400543212890625 28.948853611946106 7.796708822250366 29.612784147262573 6.590530693531036 30.818881511688232 C 6.590530693531036 30.818881511688232 3.865186393260956 33.54423975944519 3.865186393260956 33.54423975944519 C 1.3751335144042969 36.03383004665375 1.3752252459526062 40.08466184139252 3.865186393260956 42.574650049209595 C 3.865186393260956 42.574650049209595 16.518727898597717 55.22653579711914 16.518727898597717 55.22653579711914 C 17.724814295768738 56.4326331615448 19.328556954860687 57.09676265716553 21.034396827220917 57.09676265716553 C 22.740236699581146 57.09676265716553 24.343979358673096 56.4326331615448 25.550157487392426 55.22653579711914 C 25.550157487392426 55.22653579711914 28.275593519210815 52.5015754699707 28.275593519210815 52.5015754699707 C 29.481771647930145 51.295478105545044 30.146091520786285 49.69165909290314 30.146091520786285 47.9863703250885 C 30.146091520786285 47.81486654281616 30.139303386211395 47.644158601760864 30.126002311706543 47.47544026374817 C 30.126002311706543 47.47544026374817 32.98830181360245 44.612998366355896 32.98830181360245 44.612998366355896 C 32.98830181360245 44.612998366355896 53.506906270980835 65.12978494167328 53.506906270980835 65.12978494167328 C 54.713084399700165 66.33588230609894 56.316827058792114 66.99961388111115 58.022666931152344 66.99961388111115 C 59.72850680351257 66.99961388111115 61.33224946260452 66.33588230609894 62.53851932287216 65.12978494167328 C 62.53851932287216 65.12978494167328 65.13149499893188 62.53713321685791 65.13149499893188 62.53713321685791 C 67.62145614624023 60.04694604873657 67.62136441469193 55.99631321430206 65.13149499893188 53.506126046180725 C 65.13149499893188 53.506126046180725 44.61279881000519 32.98993635177612 44.61279881000519 32.98993635177612 Z M 29.703303337097168 41.24400353431702 C 29.703303337097168 41.24400353431702 24.548357248306274 46.398468136787415 24.548357248306274 46.398468136787415 C 24.548357248306274 46.398468136787415 24.948215067386627 46.798179388046265 24.948215067386627 46.798179388046265 C 25.604462563991547 47.45435047149658 25.604462563991547 48.51819121837616 24.948215067386627 49.17456126213074 C 24.948215067386627 49.17456126213074 22.222779035568237 51.899521589279175 22.222779035568237 51.899521589279175 C 21.894655287265778 52.227806091308594 21.464526057243347 52.39155042171478 21.034396827220917 52.39155042171478 C 20.604359328746796 52.39155042171478 20.174230098724365 52.227806091308594 19.846106350421906 51.899521589279175 C 19.846106350421906 51.899521589279175 7.192656576633453 39.24743688106537 7.192656576633453 39.24743688106537 C 6.536317348480225 38.59126579761505 6.536317348480225 37.52702713012695 7.192656576633453 36.871055006980896 C 7.192656576633453 36.871055006980896 9.918000876903534 34.14569675922394 9.918000876903534 34.14569675922394 C 10.246216356754303 33.81781017780304 10.676253855228424 33.65366792678833 11.106383085250854 33.65366792678833 C 11.536420583724976 33.65366792678833 11.966549813747406 33.81781017780304 12.294765293598175 34.14569675922394 C 12.294765293598175 34.14569675922394 12.694623112678528 34.54560697078705 12.694623112678528 34.54560697078705 C 12.694623112678528 34.54560697078705 34.54425233602524 12.698571801185608 34.54425233602524 12.698571801185608 C 34.54425233602524 12.698571801185608 34.144302785396576 12.299059510231018 34.144302785396576 12.299059510231018 C 33.48796355724335 11.64249050617218 33.48796355724335 10.578450798988342 34.144302785396576 9.922279715538025 C 34.144302785396576 9.922279715538025 36.869738817214966 7.197319388389587 36.869738817214966 7.197319388389587 C 37.197770833969116 6.869432806968689 37.627991795539856 6.7052905559539795 38.05802929401398 6.7052905559539795 C 38.48815852403641 6.7052905559539795 38.91828775405884 6.869432806968689 39.2464115023613 7.197319388389587 C 39.2464115023613 7.197319388389587 51.89995300769806 19.849603056907654 51.89995300769806 19.849603056907654 C 52.55629223585129 20.50557518005371 52.55629223585129 21.56941592693329 51.89995300769806 22.225984930992126 C 51.89995300769806 22.225984930992126 49.17460870742798 24.950945258140564 49.17460870742798 24.950945258140564 C 48.84639322757721 25.279030799865723 48.41626399755478 25.443173050880432 47.98622649908066 25.443173050880432 C 47.55609726905823 25.443173050880432 47.1259680390358 25.279030799865723 46.79784429073334 24.950945258140564 C 46.79784429073334 24.950945258140564 46.397986471652985 24.551035046577454 46.397986471652985 24.551035046577454 C 46.397986471652985 24.551035046577454 41.24294865131378 29.705698609352112 41.24294865131378 29.705698609352112 C 41.24294865131378 29.705698609352112 37.78274291753769 33.16502141952515 37.78274291753769 33.16502141952515 C 37.78274291753769 33.16502141952515 33.16360080242157 37.78388488292694 33.16360080242157 37.78388488292694 C 33.16360080242157 37.78388488292694 29.703303337097168 41.24400353431702 29.703303337097168 41.24400353431702 Z M 61.8041165471077 59.209920048713684 C 61.8041165471077 59.209920048713684 59.211140871047974 61.80257177352905 59.211140871047974 61.80257177352905 C 58.882925391197205 62.13085627555847 58.452796161174774 62.29460060596466 58.02275866270065 62.29460060596466 C 57.59262943267822 62.29460060596466 57.16250020265579 62.13085627555847 56.83437645435333 61.80257177352905 C 56.83437645435333 61.80257177352905 36.315680265426636 41.28638207912445 36.315680265426636 41.28638207912445 C 36.315680265426636 41.28638207912445 41.28532862663269 36.31675159931183 41.28532862663269 36.31675159931183 C 41.28532862663269 36.31675159931183 61.8041165471077 56.83353817462921 61.8041165471077 56.83353817462921 C 62.460364043712616 57.48970925807953 62.460364043712616 58.55374896526337 61.8041165471077 59.209920048713684 Z"/></g></svg>