<?xml version="1.0" standalone="no"?>
<!DOCTYPE svg PUBLIC "-//W3C//DTD SVG 20010904//EN"
 "http://www.w3.org/TR/2001/REC-SVG-20010904/DTD/svg10.dtd">
<svg version="1.0" xmlns="http://www.w3.org/2000/svg"
 width="258.000000pt" height="258.000000pt" viewBox="0 0 258.000000 258.000000"
 preserveAspectRatio="xMidYMid meet">
<metadata>
Created by potrace 1.11, written by Peter Selinger 2001-2013
</metadata>
<g transform="translate(0.000000,258.000000) scale(0.100000,-0.100000)"
fill="#000000" stroke="none">
<path d="M1237 2424 c-4 -4 -7 -17 -7 -28 -1 -20 -1 -20 -14 -3 -9 12 -16 14
-21 8 -3 -6 -1 -11 4 -11 6 0 11 -7 11 -16 0 -8 -3 -13 -7 -11 -5 3 -8 -36 -9
-86 0 -52 -5 -101 -12 -112 l-12 -20 2 20 c3 49 -3 96 -12 90 -10 -6 -10 -115
0 -115 3 0 5 -14 5 -30 1 -48 -18 -29 -21 21 -2 24 -6 76 -9 114 -4 39 -7 85
-8 104 -3 53 -23 49 -22 -4 1 -24 3 -47 6 -49 3 -3 4 -28 3 -55 -1 -28 1 -51
5 -51 4 0 7 -22 7 -50 -1 -27 2 -50 5 -50 4 0 6 -12 4 -27 -2 -25 -2 -26 11
-8 8 10 17 16 20 12 4 -4 2 -13 -4 -20 -7 -8 -8 -18 -4 -22 4 -5 2 -5 -4 -2
-13 7 -27 -17 -16 -27 3 -4 6 -20 7 -36 1 -26 -1 -29 -18 -24 -11 3 -17 2 -14
-3 4 -5 0 -10 -8 -10 -9 0 -12 10 -10 30 2 17 -2 42 -10 57 -8 15 -11 31 -7
35 4 5 2 5 -5 1 -7 -4 -9 -14 -6 -24 3 -9 3 -14 -1 -10 -4 3 -9 14 -11 25 -2
10 -4 20 -5 23 -1 3 -3 10 -4 15 -1 6 -9 28 -19 49 -10 22 -15 46 -13 53 3 7
0 13 -7 13 -8 0 -6 4 3 10 9 6 10 10 3 10 -6 0 -10 9 -8 20 2 11 0 22 -6 25
-5 4 -9 16 -9 29 0 31 -20 86 -31 86 -10 0 -7 -36 4 -46 4 -4 7 -19 7 -34 0
-15 3 -30 7 -34 11 -11 13 -86 3 -86 -12 0 -22 34 -14 54 3 9 2 16 -3 16 -5 0
-10 12 -11 28 0 15 -3 36 -6 47 -2 11 -5 25 -5 31 -1 7 -8 15 -17 18 -17 6
-15 -14 6 -87 6 -21 9 -44 6 -50 -2 -7 -5 -4 -5 6 -1 9 -5 17 -10 17 -9 0 -20
27 -28 70 -4 22 -19 39 -34 40 -9 0 -40 -72 -41 -96 -1 -11 -8 -21 -15 -21 -8
0 -12 6 -9 13 6 16 -28 61 -36 48 -3 -5 9 -42 28 -82 19 -40 37 -84 40 -98 3
-13 10 -24 14 -24 12 0 19 -39 9 -46 -5 -3 -9 1 -9 9 0 8 -7 20 -15 27 -8 7
-15 19 -15 27 0 8 -9 27 -19 41 -10 15 -19 30 -20 35 -2 23 -35 77 -48 77 -10
0 -1 -24 29 -82 24 -46 47 -86 51 -89 5 -3 8 -8 7 -10 -3 -8 14 -45 32 -68 22
-29 24 -63 3 -55 -8 4 -15 14 -15 24 0 10 -3 20 -7 22 -7 2 -44 72 -48 88 0 3
-14 30 -30 60 -17 30 -33 63 -37 73 -4 9 -12 17 -18 17 -16 0 -4 -36 30 -92
15 -25 31 -56 35 -67 3 -12 11 -21 16 -21 6 0 7 -4 4 -10 -3 -5 -1 -10 6 -10
7 0 9 -3 6 -7 -4 -3 -3 -11 1 -17 27 -35 61 -105 49 -100 -7 2 -26 29 -42 59
-15 30 -32 55 -37 55 -4 0 -8 8 -9 18 0 9 -9 31 -20 47 -10 17 -26 44 -34 62
-8 17 -19 35 -25 38 -6 4 -8 11 -5 16 4 5 2 9 -4 9 -24 0 -18 -23 21 -85 24
-37 43 -70 44 -74 1 -16 28 -61 36 -61 4 0 8 -6 8 -12 0 -7 20 -43 44 -80 26
-39 40 -70 35 -74 -10 -6 -38 23 -39 39 0 5 -13 27 -29 50 -16 23 -45 73 -65
111 -20 38 -45 81 -56 96 -11 16 -20 33 -20 39 0 6 -7 11 -15 11 -22 0 -18
-17 14 -63 36 -53 91 -145 91 -154 0 -3 11 -21 26 -40 14 -18 22 -33 19 -33
-3 0 5 -12 19 -27 14 -15 22 -31 19 -36 -8 -12 -22 5 -88 103 -31 47 -64 96
-73 109 -9 13 -16 28 -14 33 1 4 -2 8 -7 8 -5 0 -14 13 -21 29 -15 37 -48 73
-60 66 -5 -3 11 -35 35 -71 25 -36 45 -68 45 -71 0 -4 22 -37 50 -75 52 -71
56 -78 41 -78 -5 0 -26 26 -47 58 -22 31 -45 61 -51 65 -7 4 -13 12 -13 17 0
5 -19 34 -42 65 -27 36 -45 52 -51 46 -6 -6 -1 -20 14 -40 57 -70 68 -86 64
-90 -7 -6 -53 46 -70 80 -15 28 -26 35 -38 23 -7 -7 53 -94 66 -94 4 0 6 -4 3
-9 -4 -5 0 -12 6 -14 10 -4 10 -6 1 -6 -7 -1 -35 23 -63 52 -28 28 -50 48 -49
42 4 -24 -2 -26 -25 -11 -22 14 -56 13 -56 -2 0 -3 12 -26 27 -51 l27 -46 -27
18 c-22 14 -27 15 -27 3 0 -8 4 -16 10 -18 15 -5 120 -110 120 -120 0 -5 -10
0 -22 12 -12 11 -26 20 -30 20 -5 0 -7 3 -5 8 3 4 -1 13 -9 20 -8 7 -14 10
-14 7 0 -3 -8 3 -18 13 -11 9 -17 20 -16 23 4 7 -38 21 -44 15 -1 -2 3 -10 11
-17 8 -8 61 -59 118 -113 57 -54 108 -106 112 -115 6 -12 5 -12 -6 1 -8 10
-17 15 -20 11 -4 -3 -7 -2 -7 4 0 6 -17 22 -38 36 -28 18 -39 21 -39 11 0 -8
4 -14 8 -14 4 0 14 -6 21 -13 7 -7 31 -26 53 -42 52 -38 75 -61 68 -69 -3 -3
-13 2 -22 12 -17 19 -34 22 -47 10 -4 -5 -1 -8 7 -8 14 0 59 -42 59 -55 0 -4
-12 3 -27 14 -16 12 -62 45 -103 73 -69 47 -146 107 -194 151 -21 18 -46 23
-46 8 0 -8 105 -91 115 -91 3 0 18 -13 33 -30 16 -16 31 -28 33 -26 7 7 122
-78 127 -93 3 -10 -4 -9 -27 5 -17 10 -31 21 -31 24 0 3 -17 14 -37 25 -52 26
-173 107 -173 115 0 10 -47 30 -54 23 -8 -9 30 -42 107 -92 37 -24 67 -46 67
-48 0 -14 -57 12 -115 53 -40 28 -70 43 -75 38 -6 -6 6 -19 30 -34 22 -14 40
-28 40 -32 0 -5 8 -8 18 -8 10 0 19 -6 19 -14 0 -8 -7 -15 -16 -15 -9 0 -27
-3 -41 -6 -18 -4 -32 0 -47 15 -13 11 -23 18 -23 14 0 -3 -6 -1 -13 5 -27 22
-25 -1 1 -24 26 -23 26 -24 5 -22 -13 1 -23 4 -23 8 0 4 -14 10 -31 14 -57 13
-57 -27 -1 -87 24 -26 21 -35 -12 -29 -5 1 -4 -5 3 -13 12 -14 67 -32 84 -28
4 1 7 -3 7 -10 0 -6 3 -9 6 -6 3 4 21 0 40 -8 19 -8 34 -11 34 -7 0 5 4 2 9
-5 5 -8 20 -15 35 -15 14 -1 26 -6 26 -10 0 -5 4 -6 9 -3 11 7 71 -13 71 -25
0 -4 -6 -6 -13 -3 -8 3 -13 -3 -13 -15 0 -11 3 -18 7 -15 4 2 10 -2 12 -8 3
-8 6 -5 6 6 1 16 3 17 17 5 14 -12 14 -14 -3 -20 -10 -4 -27 -1 -39 6 -11 7
-43 16 -70 20 -27 4 -54 12 -61 17 -7 5 -17 7 -23 3 -5 -3 -10 -1 -10 4 0 6
-8 11 -18 11 -11 0 -45 9 -77 20 -32 11 -62 20 -67 20 -12 0 -4 -25 8 -26 31
-4 75 -18 80 -25 3 -5 16 -9 29 -9 13 0 26 -4 29 -9 6 -9 -39 -8 -64 3 -8 3
-27 7 -42 10 -15 3 -32 7 -37 10 -5 3 -14 -1 -21 -9 -9 -11 -5 -15 27 -21 21
-4 45 -8 53 -9 8 -1 22 -5 30 -8 8 -4 26 -9 40 -11 14 -3 46 -10 73 -15 103
-24 138 -31 145 -29 15 3 83 -15 77 -21 -10 -9 -39 -7 -47 4 -5 6 -8 5 -8 -4
0 -9 -4 -10 -12 -4 -7 6 -35 13 -63 17 -27 3 -59 8 -70 10 -50 11 -142 28
-160 30 -11 2 -27 6 -35 9 -31 13 -70 12 -70 -2 0 -5 12 -11 27 -14 16 -3 39
-8 53 -11 51 -12 76 -17 111 -21 20 -2 47 -8 60 -13 13 -5 44 -10 69 -11 25
-1 47 -6 48 -12 2 -5 9 -6 14 -3 7 4 8 2 4 -4 -7 -12 -25 -11 -106 4 l-35 6
25 -22 c14 -12 20 -19 13 -16 -6 4 -14 0 -16 -6 -4 -10 -6 -10 -6 0 -1 7 -4
11 -9 9 -7 -4 -121 7 -174 17 -20 3 -28 1 -28 -9 0 -13 51 -29 75 -25 6 2 28
2 50 1 31 -1 36 -3 26 -13 -12 -13 -121 -19 -121 -8 0 10 -75 5 -78 -5 -1 -5
16 -11 38 -13 22 -2 40 -8 40 -14 0 -6 -3 -9 -6 -5 -5 4 -114 -36 -132 -49 -9
-6 15 -30 31 -31 33 -1 37 -3 37 -19 0 -8 5 -12 10 -9 6 3 10 1 10 -5 0 -6 6
-10 13 -9 22 3 37 -1 37 -10 0 -4 -15 -7 -34 -4 -39 4 -59 -12 -23 -19 12 -3
77 -4 143 -4 97 1 120 -2 116 -12 -4 -11 -6 -11 -13 0 -5 7 -9 8 -9 2 0 -6
-23 -11 -55 -11 -30 -1 -86 -2 -125 -2 -51 -1 -70 -5 -70 -14 0 -10 18 -13 68
-12 37 0 73 4 80 8 7 5 12 3 12 -5 0 -11 2 -10 9 0 7 11 9 11 14 0 5 -15 -15
-19 -117 -22 -61 -1 -88 -20 -42 -28 14 -3 28 -3 31 0 2 3 37 6 76 8 40 1 75
6 78 11 7 10 141 14 141 4 0 -7 -46 -14 -97 -15 -18 0 -29 -4 -26 -9 4 -6 -2
-8 -15 -5 -11 3 -42 1 -69 -4 -46 -9 -83 -14 -130 -17 -14 0 -23 -8 -23 -17 0
-11 9 -14 38 -11 20 1 43 6 50 11 12 7 73 14 164 19 21 1 38 4 38 7 0 3 10 6
23 7 59 6 84 10 94 16 6 4 14 3 18 -3 3 -5 4 -11 1 -11 -3 -1 -9 -2 -13 -3
-93 -23 -117 -28 -150 -31 -18 -1 -50 -6 -70 -10 -21 -5 -64 -9 -96 -10 -37
-1 -62 -7 -67 -15 -10 -16 -1 -37 9 -24 3 5 15 10 26 11 11 2 35 5 53 7 36 5
44 -11 9 -19 -31 -8 -59 -13 -75 -14 -7 -1 -10 -6 -7 -11 7 -11 75 -11 75 0 0
3 12 6 28 7 15 1 43 4 62 7 33 6 34 6 16 -9 -11 -8 -25 -15 -30 -16 -6 0 -22
-3 -36 -5 -14 -2 -36 -6 -50 -8 -41 -7 -70 -18 -70 -27 0 -14 39 -15 70 -2 8
3 21 7 29 9 8 1 26 5 40 9 25 5 25 5 7 -10 -11 -8 -28 -15 -38 -15 -10 0 -18
-5 -18 -10 0 -6 -6 -10 -12 -9 -29 3 -46 -2 -52 -16 -6 -17 17 -16 68 4 30 12
42 9 32 -8 -4 -6 -14 -7 -23 -4 -11 4 -14 3 -9 -6 4 -6 4 -11 -1 -10 -24 4
-44 -3 -40 -13 2 -7 9 -12 15 -11 6 2 9 -4 5 -13 -3 -8 -11 -13 -18 -10 -7 2
-21 -4 -31 -15 -18 -20 -18 -21 38 -24 34 -1 69 -15 40 -15 -7 0 -12 -7 -12
-16 0 -9 5 -12 12 -8 8 5 9 0 6 -14 -8 -31 3 -34 38 -11 16 10 47 28 70 39 22
11 50 29 62 40 11 11 26 20 31 20 6 0 14 6 18 13 9 15 71 42 79 35 2 -3 -18
-20 -46 -38 -27 -18 -50 -36 -50 -41 0 -5 -5 -9 -10 -9 -6 0 -36 -16 -66 -35
-30 -19 -56 -34 -58 -32 -6 3 -46 -35 -46 -44 0 -21 106 36 118 64 2 4 9 7 16
7 7 0 21 9 31 20 10 11 24 20 32 20 7 0 13 5 13 12 0 6 3 9 6 5 6 -5 70 36 84
54 7 10 83 49 94 49 5 0 1 -9 -9 -20 -10 -11 -22 -20 -26 -20 -5 0 -32 -18
-61 -40 -29 -22 -59 -40 -65 -40 -7 0 -13 -4 -13 -10 0 -5 -7 -10 -15 -10 -8
0 -15 -4 -15 -10 0 -5 -7 -10 -15 -10 -8 0 -15 -4 -15 -10 0 -5 -5 -10 -10
-10 -6 0 -33 -18 -61 -40 -29 -22 -44 -40 -35 -40 15 0 86 40 113 64 26 23 39
32 78 55 l40 23 -30 -27 c-72 -65 -107 -95 -111 -95 -15 0 -84 -55 -84 -67 0
-11 8 -10 38 8 20 12 43 29 50 37 6 9 12 12 12 8 0 -4 6 -1 14 6 45 44 176
142 181 136 7 -6 -8 -21 -70 -73 -33 -27 -66 -56 -74 -63 -7 -7 -40 -31 -72
-53 -55 -37 -73 -59 -48 -59 13 0 141 95 193 144 21 20 41 34 44 31 7 -6 -90
-101 -160 -159 -27 -21 -48 -42 -48 -47 0 -16 29 -10 39 8 6 10 11 15 11 10 0
-4 21 13 47 39 26 25 49 40 51 34 2 -6 -10 -23 -28 -38 -90 -74 -97 -82 -74
-82 12 0 24 7 28 15 3 8 12 15 20 15 10 0 6 -15 -16 -56 -42 -78 -15 -96 51
-34 9 8 32 26 50 40 18 14 41 33 49 42 9 10 20 18 24 18 19 0 4 -21 -53 -78
-34 -33 -59 -66 -57 -73 5 -15 76 54 133 129 21 29 43 52 47 52 4 0 8 6 8 13
0 12 31 48 69 79 31 26 26 11 -11 -31 -18 -20 -42 -49 -53 -65 -28 -40 -126
-158 -149 -179 -14 -12 -15 -17 -5 -17 8 0 19 4 24 8 19 13 112 128 209 257
53 70 107 127 114 121 3 -3 -9 -24 -26 -45 -18 -22 -32 -44 -32 -50 0 -5 -3
-11 -8 -13 -4 -2 -23 -23 -42 -48 -19 -25 -45 -55 -57 -68 -13 -13 -23 -26
-23 -30 0 -4 -23 -32 -50 -62 -52 -58 -59 -70 -37 -70 8 0 37 28 65 63 29 34
62 73 75 87 12 14 30 38 40 53 10 16 25 36 32 45 8 9 30 39 50 67 27 39 35 45
35 28 0 -12 -4 -24 -9 -27 -5 -4 -35 -45 -67 -94 -32 -48 -69 -98 -81 -111
-13 -13 -23 -27 -23 -31 0 -4 -11 -20 -25 -36 -26 -30 -31 -44 -17 -44 10 0
52 43 52 53 0 10 71 101 81 105 19 7 8 -18 -36 -81 -49 -73 -51 -77 -31 -77 7
0 24 20 37 44 14 28 28 42 36 39 8 -3 12 -12 9 -19 -3 -8 -1 -25 4 -39 9 -24
14 -25 86 -25 66 0 78 3 95 23 11 12 19 18 18 12 -6 -42 30 -43 49 -1 16 37
15 47 -3 40 -8 -4 -13 -9 -11 -13 2 -3 0 -15 -5 -26 -6 -16 -7 -13 -4 10 2 17
4 30 5 30 2 0 4 10 5 22 4 35 14 55 26 48 6 -4 13 2 16 13 3 11 11 23 19 26
12 5 12 2 3 -17 -7 -12 -11 -22 -10 -22 2 0 0 -15 -14 -95 -2 -8 -5 -22 -7
-30 -1 -8 3 -15 11 -15 15 0 22 20 24 72 1 17 5 29 9 27 8 -5 12 30 9 73 -1
11 3 24 9 28 8 5 11 -3 9 -27 -3 -36 7 -62 21 -53 4 3 7 -3 5 -12 -2 -10 -4
-18 -5 -18 -1 0 -3 -21 -5 -47 -2 -46 7 -62 19 -35 5 9 7 9 12 0 4 -9 35 -13
101 -13 l95 0 -4 25 c-3 14 -1 22 5 18 5 -3 6 3 2 17 -5 16 -4 20 4 15 7 -4
11 -16 9 -27 -2 -12 3 -23 12 -25 11 -3 11 -2 3 4 -8 5 -9 14 -3 23 5 9 5 19
-2 28 -8 9 -8 16 0 24 9 9 12 7 14 -8 0 -10 2 -23 3 -29 2 -5 3 -22 4 -37 1
-16 7 -28 14 -28 12 0 16 48 7 85 -4 17 0 39 5 33 3 -3 8 -18 11 -34 3 -16 7
-36 9 -44 2 -8 4 -21 4 -27 1 -7 4 -13 9 -13 4 0 7 18 7 39 0 24 -4 37 -10 34
-5 -4 -7 -3 -3 2 4 4 3 16 -3 26 -7 13 -6 19 1 19 6 0 4 9 -4 23 -9 13 -12 28
-7 35 9 14 19 -7 27 -58 3 -14 12 -46 20 -72 l16 -48 174 0 175 0 -17 33 c-9
17 -32 57 -50 88 -38 64 -48 109 -14 66 11 -14 20 -30 20 -35 0 -5 7 -15 15
-22 8 -6 14 -15 13 -18 -1 -4 10 -26 25 -49 15 -24 27 -47 27 -53 0 -5 7 -10
15 -10 8 0 15 3 15 8 0 4 -25 49 -55 101 -30 51 -55 97 -55 102 0 5 -3 9 -7 9
-13 0 -57 70 -49 77 3 4 13 -3 21 -15 9 -11 21 -27 28 -34 17 -19 47 -69 54
-90 3 -10 10 -18 15 -18 5 0 6 -5 3 -10 -3 -6 -1 -10 4 -10 6 0 11 -5 11 -12
0 -6 11 -26 26 -45 14 -18 22 -33 18 -33 -3 0 -1 -7 6 -15 7 -8 19 -15 26 -15
10 0 7 11 -11 40 -14 22 -25 42 -25 46 0 4 -18 33 -40 66 -41 62 -47 78 -30
78 6 0 10 -6 10 -14 0 -8 7 -16 15 -20 8 -3 15 -12 15 -21 0 -8 4 -15 9 -15 5
0 11 -8 15 -17 5 -18 26 -53 36 -63 3 -3 14 -22 25 -43 18 -34 45 -50 45 -26
0 5 -19 38 -42 72 -24 34 -42 65 -40 70 1 4 -3 7 -9 7 -5 0 -7 5 -3 12 8 12
54 -38 54 -59 0 -6 8 -18 18 -25 10 -7 21 -21 25 -30 3 -10 14 -18 23 -18 13
0 12 5 -6 35 -27 43 -19 45 20 5 17 -17 30 -26 30 -21 0 10 7 9 52 -3 27 -8
57 1 42 13 -5 3 -18 25 -30 47 -20 39 -16 49 14 31 25 -16 11 12 -19 37 -17
14 -28 26 -25 26 3 0 -11 16 -32 36 -20 19 -28 31 -17 26 14 -8 22 -6 32 6 8
11 15 13 20 7 5 -6 27 -25 51 -44 52 -41 58 -18 5 24 -21 17 -51 45 -69 63
-17 17 -36 32 -42 32 -6 0 -15 7 -20 16 -6 12 -11 13 -16 5 -7 -11 15 -41 30
-41 3 0 15 -10 26 -22 33 -38 0 -33 -37 6 -18 20 -38 36 -43 36 -15 0 -22 43
-10 58 10 12 14 11 25 -4 7 -10 13 -14 13 -9 0 5 6 2 13 -6 6 -8 39 -35 71
-60 33 -24 74 -59 93 -77 37 -35 43 -38 43 -19 0 13 -53 65 -110 107 -19 14
-51 40 -71 57 -20 18 -42 33 -48 33 -7 0 -9 5 -6 10 3 6 2 10 -3 10 -10 0 -53
34 -98 76 -13 12 -29 24 -35 26 -9 3 -10 6 -2 11 6 4 22 -2 35 -13 23 -21 180
-144 231 -183 16 -12 46 -39 68 -59 42 -39 81 -58 77 -37 -2 7 -23 28 -48 47
-25 20 -47 38 -50 41 -3 3 -27 24 -55 45 -27 22 -61 51 -75 64 l-25 25 32 -16
c17 -9 37 -22 45 -29 7 -7 31 -25 53 -39 22 -15 55 -40 74 -57 18 -17 39 -28
47 -25 8 3 14 7 14 8 0 2 -30 27 -67 57 -43 34 -61 54 -51 56 8 2 26 -6 39
-17 13 -11 40 -33 60 -50 22 -18 40 -27 48 -22 9 6 -3 19 -38 45 -48 34 -68
62 -36 50 8 -4 15 -10 15 -15 0 -5 3 -8 8 -7 4 1 17 -3 30 -10 12 -7 44 -15
70 -17 39 -4 52 -1 71 16 l23 21 -38 23 c-26 16 -39 31 -39 45 0 13 -7 27 -15
31 -15 9 -90 42 -100 44 -51 11 -69 36 -20 29 17 -3 30 -1 30 5 0 10 -19 18
-59 26 -11 2 -29 8 -38 14 -14 8 -15 11 -3 12 8 1 19 0 25 -1 5 -1 19 -3 30
-4 11 -1 28 -6 38 -9 9 -4 25 -10 35 -14 9 -3 19 -7 22 -8 3 -1 20 -6 38 -10
17 -4 32 -11 32 -16 0 -5 7 -6 15 -3 33 13 14 33 -42 44 -32 7 -70 18 -85 26
-14 7 -40 15 -57 16 -17 1 -31 7 -31 12 0 5 -3 6 -6 3 -4 -3 -16 -1 -27 4 -32
18 0 30 37 14 17 -7 56 -20 86 -30 30 -9 62 -19 70 -22 30 -10 80 -12 80 -2 0
10 -14 17 -45 22 -11 1 -24 5 -30 8 -5 4 -35 12 -65 18 -30 7 -62 15 -70 18
-13 5 -65 13 -97 15 -7 1 -13 5 -13 10 0 5 -4 7 -8 4 -12 -7 -52 22 -52 37 0
9 2 9 8 1 4 -7 18 -14 32 -15 14 -2 28 -8 31 -12 3 -5 20 -9 37 -9 18 -1 32
-4 32 -8 0 -3 12 -7 28 -7 15 0 39 -3 55 -7 15 -3 39 -9 55 -12 15 -3 34 -7
42 -9 8 -2 15 -4 15 -5 0 -1 15 -4 33 -6 34 -5 41 3 20 24 -10 10 -10 15 2 22
21 13 6 23 -38 27 -20 1 -59 8 -87 15 -27 7 -56 11 -63 9 -8 -1 -20 3 -28 10
-11 9 -14 8 -14 -2 0 -11 -2 -11 -8 -1 -5 7 -24 13 -44 14 -21 1 -35 6 -35 14
0 7 4 11 7 9 4 -3 34 -7 66 -10 68 -5 113 -13 128 -23 6 -3 39 -8 73 -9 50 -3
62 -1 57 10 -2 8 -10 14 -17 15 -156 15 -170 17 -174 29 -3 9 41 9 102 -1 78
-13 96 -13 92 -2 -2 6 -8 11 -13 12 -5 0 -22 4 -38 9 -16 4 -37 8 -48 9 -22 1
-25 19 -3 22 8 1 15 -1 15 -4 0 -4 15 -7 33 -6 17 0 37 -4 43 -8 7 -5 14 -3
18 7 3 8 0 15 -7 15 -7 0 0 12 15 25 16 13 28 29 28 34 0 13 -31 30 -61 34
-26 4 -39 27 -15 27 9 0 16 8 16 19 0 11 5 23 10 26 20 13 0 22 -42 19 -24 -1
-43 -3 -43 -4 0 -1 -22 -4 -50 -6 -27 -2 -66 -7 -85 -11 -62 -11 -80 -11 -80
4 0 10 6 12 21 8 12 -4 19 -3 16 2 -3 5 8 8 26 7 17 -1 38 1 47 6 8 4 51 10
95 12 92 4 116 13 88 33 -14 10 -15 16 -5 28 17 20 -6 29 -45 18 -15 -4 -35
-7 -43 -6 -8 1 -24 -3 -35 -8 -10 -6 -35 -11 -55 -13 -19 -2 -51 -6 -70 -9
-19 -4 -53 -7 -75 -8 -22 -1 -43 -6 -47 -11 -9 -13 -58 -14 -65 -2 -3 5 -2 6
3 3 14 -8 38 9 30 22 -4 6 -19 9 -34 5 l-27 -6 25 21 c25 21 45 25 113 24 20
-1 37 3 37 7 0 5 9 7 20 5 11 -2 20 0 20 6 0 5 3 8 8 7 4 -1 18 2 32 5 14 4
36 9 50 11 39 6 104 25 119 35 7 5 10 14 6 20 -5 9 -11 9 -22 -1 -9 -7 -19
-12 -22 -12 -3 1 -10 0 -16 -2 -98 -31 -146 -41 -152 -31 -3 6 -1 7 5 3 7 -4
12 -2 12 4 0 6 4 9 9 6 5 -4 11 -2 13 3 1 6 15 11 30 13 15 2 30 7 34 11 4 4
14 7 21 7 19 0 100 37 108 49 3 5 1 12 -5 16 -5 3 -10 2 -10 -3 0 -5 -10 -12
-22 -15 -13 -2 -40 -12 -60 -21 -62 -27 -52 0 14 36 87 48 103 79 40 83 -15 1
-35 6 -45 10 -16 7 -17 9 -2 25 23 25 2 35 -32 16 -16 -8 -43 -22 -61 -31 -31
-15 -32 -15 -21 3 6 10 33 28 60 41 27 12 49 29 49 36 0 18 -14 19 -32 3 -7
-7 -26 -20 -43 -28 -16 -8 -39 -24 -50 -36 -12 -11 -25 -19 -31 -17 -6 2 -21
-5 -33 -16 -12 -11 -29 -17 -37 -14 -10 4 2 17 38 41 29 19 55 39 56 44 2 4 9
8 16 8 7 0 21 9 31 20 10 11 24 20 30 20 14 0 29 29 20 38 -6 6 -75 -40 -75
-50 0 -5 -5 -8 -10 -8 -6 0 -23 -11 -37 -24 -14 -13 -37 -30 -52 -38 -14 -7
-28 -15 -31 -18 -17 -17 -50 -29 -56 -19 -3 6 -4 12 -3 13 2 2 29 19 59 39 30
20 62 43 70 50 8 7 35 28 60 47 46 35 60 49 60 63 0 15 -20 6 -52 -22 -66 -59
-105 -89 -177 -139 -106 -74 -122 -67 -21 9 19 15 46 37 61 50 14 13 40 35 58
49 55 42 91 77 91 89 0 19 -16 12 -57 -26 -23 -21 -60 -54 -84 -73 -23 -19
-53 -46 -66 -60 -12 -14 -23 -21 -23 -16 0 5 -10 1 -22 -9 -13 -11 33 36 102
104 85 83 120 125 112 130 -8 5 -53 -32 -128 -106 -64 -62 -120 -113 -125
-113 -5 0 -9 -6 -10 -12 -1 -15 -89 -95 -89 -81 0 5 33 43 73 85 213 222 252
269 234 280 -6 4 -14 3 -16 -3 -2 -6 -15 -24 -30 -40 -14 -15 -51 -56 -81 -90
-80 -88 -82 -90 -87 -85 -3 3 0 11 6 18 99 119 171 223 171 247 -1 14 -2 14
-14 -2 -8 -10 -20 -15 -30 -11 -18 7 -49 -13 -41 -26 3 -5 0 -12 -6 -15 -23
-15 -18 4 16 60 26 44 32 62 24 71 -12 15 -39 5 -67 -23 -24 -24 -27 -4 -4 27
12 16 18 32 12 35 -8 5 -29 -19 -80 -95 -27 -40 -47 -60 -53 -53 -4 3 2 18 13
33 11 16 20 31 20 35 0 3 12 25 28 48 15 23 28 48 30 55 5 28 -15 8 -53 -51
-22 -34 -43 -65 -48 -68 -5 -3 -8 -9 -8 -13 2 -17 -1 -23 -23 -48 -14 -14 -22
-29 -18 -34 4 -4 2 -4 -5 -1 -12 8 22 85 44 100 6 4 14 21 18 37 4 17 11 30
16 30 5 0 9 5 9 10 0 6 10 24 22 40 16 22 19 33 11 41 -6 6 -13 7 -16 2 -11
-19 -57 -103 -92 -168 -20 -38 -41 -73 -47 -76 -5 -3 -9 -10 -8 -15 1 -5 -4
-10 -10 -12 -6 -2 -3 13 8 34 11 22 36 74 56 118 20 43 45 91 56 106 11 15 17
30 14 33 -9 8 -35 -4 -29 -13 3 -5 0 -14 -7 -22 -7 -7 -24 -38 -38 -68 -13
-30 -30 -62 -37 -71 -7 -8 -13 -21 -13 -27 0 -7 -5 -12 -11 -12 -6 0 -9 -7 -5
-15 3 -8 1 -15 -4 -15 -6 0 -9 -3 -8 -7 2 -11 -45 -107 -54 -111 -5 -2 -8 -10
-8 -17 0 -7 -7 -15 -15 -19 -13 -5 -13 0 2 27 9 17 17 34 18 37 0 3 10 20 23
38 13 17 20 32 16 32 -3 0 -2 6 3 13 6 6 13 24 17 40 3 15 11 27 16 27 6 0 10
7 10 15 0 18 20 57 35 67 6 4 7 8 2 8 -4 0 6 24 23 53 35 63 37 71 11 55 -11
-6 -29 -33 -42 -60 -25 -53 -44 -66 -26 -18 6 17 15 30 20 30 4 0 6 4 2 9 -3
5 -1 12 5 16 14 9 12 35 -2 33 -7 -2 -12 5 -10 15 2 9 -2 17 -8 17 -6 0 -14
-8 -17 -17 -4 -10 -9 -20 -13 -23 -3 -3 -19 -35 -35 -72 -15 -37 -32 -65 -37
-62 -5 3 -3 12 4 21 6 8 13 24 15 34 2 11 13 39 25 62 26 51 32 73 14 58 -7
-6 -23 -33 -36 -61 -22 -48 -40 -64 -40 -37 0 6 11 34 25 61 29 58 30 66 8 66
-9 0 -14 -3 -10 -6 6 -7 -19 -64 -29 -64 -8 0 0 54 8 60 4 4 11 20 14 38 5 26
3 32 -10 32 -10 0 -14 5 -11 10 12 20 -4 9 -39 -25 -38 -36 -62 -46 -52 -20 3
9 0 15 -9 15 -8 0 -16 -7 -16 -15 -1 -8 -2 -18 -3 -22 -1 -5 -5 -25 -9 -45 -5
-22 -14 -38 -22 -38 -14 0 -15 16 -1 38 4 7 5 16 2 19 -3 3 2 19 10 35 11 21
13 33 5 41 -7 7 -13 3 -20 -14 -5 -13 -7 -27 -4 -31 2 -5 0 -8 -5 -8 -4 0 -9
-12 -10 -27 -1 -36 -11 -101 -19 -133 -11 -42 -11 -61 1 -57 6 2 11 8 11 13 0
5 3 14 7 19 3 6 6 22 7 38 3 51 4 57 16 57 7 0 11 -10 9 -22 -13 -86 -17 -105
-25 -120 -6 -10 -14 -18 -20 -18 -6 0 -7 5 -4 10 3 6 1 10 -4 10 -6 0 -11 -8
-11 -19 0 -23 -29 -51 -31 -30 -2 27 3 64 11 79 8 15 18 72 25 151 2 20 10 53
19 73 8 19 11 38 6 41 -13 8 -29 -22 -32 -63 -1 -7 -6 -11 -12 -9 -15 5 -14
39 2 55 14 16 16 42 2 42 -5 0 -13 -8 -18 -17 -14 -27 -22 -112 -11 -119 5 -3
8 0 7 7 -2 6 3 14 10 16 9 3 12 -5 10 -26 -1 -17 -7 -31 -13 -31 -5 0 -3 -5 5
-10 9 -6 10 -10 3 -10 -6 0 -10 -9 -8 -20 2 -11 0 -20 -6 -20 -5 0 -9 7 -9 16
0 9 -5 12 -12 8 -6 -4 -8 -3 -4 4 3 5 3 12 -1 15 -5 2 -2 2 5 1 6 -2 12 1 12
6 0 6 -9 10 -21 10 -11 0 -17 4 -14 10 3 5 8 37 10 70 2 34 7 65 10 70 4 6 -1
10 -9 10 -20 0 -18 6 -23 -115 -2 -55 -6 -119 -9 -142 -4 -28 -2 -43 5 -43 10
0 16 21 12 42 0 5 2 7 7 7 19 -3 33 2 27 11 -3 6 -2 10 3 10 5 0 12 -8 15 -19
3 -15 0 -17 -16 -13 -15 4 -18 2 -12 -8 5 -8 4 -11 -2 -7 -16 10 -23 -31 -8
-43 11 -9 12 -6 8 12 -5 18 -3 21 7 11 14 -13 5 -48 -10 -38 -13 8 -13 -16 1
-35 9 -12 10 -11 4 5 -5 17 -4 18 7 7 11 -11 8 -17 -15 -34 -15 -11 -25 -24
-21 -29 3 -5 -1 -9 -8 -9 -9 0 -9 -3 2 -10 11 -7 11 -10 2 -10 -7 0 -10 -4 -7
-10 3 -6 -1 -7 -10 -4 -14 6 -13 10 5 41 25 42 28 82 5 63 -18 -15 -20 -35 -3
-24 7 4 8 3 4 -5 -10 -15 -22 -7 -29 19 -3 11 -1 18 4 14 18 -11 31 8 16 24
-12 14 -14 49 -13 172 1 85 5 161 9 168 5 7 4 12 -2 12 -6 0 -14 1 -18 3 -5 1
-9 -25 -10 -58 -1 -33 -2 -61 -3 -62 -2 -4 -2 -62 0 -65 6 -9 4 -71 -3 -75 -4
-2 -5 -8 -2 -13 10 -16 8 -101 -3 -112 -9 -9 -10 -1 -7 31 2 23 1 40 -3 37 -4
-2 -6 12 -5 32 2 34 5 222 4 264 -1 11 -6 15 -16 12 -8 -4 -13 -9 -10 -14 4
-6 6 -159 3 -203 -3 -37 -19 2 -21 51 -1 29 -4 52 -7 52 -6 0 -6 86 0 105 5
21 -1 35 -15 35 -8 0 -15 -4 -15 -10 0 -5 5 -10 11 -10 5 0 8 -4 4 -10 -7 -12
-35 -1 -32 13 2 13 -26 21 -36 11z m633 -193 c0 -6 -4 -13 -10 -16 -5 -3 -10
1 -10 9 0 9 5 16 10 16 6 0 10 -4 10 -9z m-40 -71 c-6 -11 -13 -20 -16 -20 -2
0 0 9 6 20 6 11 13 20 16 20 2 0 0 -9 -6 -20z m-29 -53 c-10 -9 -11 -8 -5 6 3
10 9 15 12 12 3 -3 0 -11 -7 -18z m30 -14 c-12 -20 -14 -14 -5 12 4 9 9 14 11
11 3 -2 0 -13 -6 -23z m-25 -68 c-9 -13 -17 -32 -19 -42 -4 -30 -70 -138 -75
-124 -4 13 34 91 51 102 5 3 8 9 8 13 -3 15 29 76 40 76 7 0 6 -8 -5 -25z
m-1184 -44 c12 -14 13 -21 4 -24 -6 -3 -17 6 -23 19 -13 29 -4 31 19 5z m1536
2 c-2 -10 -14 -28 -27 -40 -13 -13 -21 -23 -17 -23 3 0 -2 -8 -11 -18 -29 -30
-63 -76 -63 -84 0 -4 -5 -8 -10 -8 -15 0 26 76 74 137 43 54 59 65 54 36z
m-328 -83 c-6 -11 -16 -17 -22 -14 -7 5 -5 12 7 21 25 18 28 17 15 -7z m-1536
-516 c5 -12 2 -15 -10 -10 -8 3 -18 6 -20 6 -3 0 -2 5 1 10 9 15 22 12 29 -6z
m101 -18 c11 -2 31 -9 45 -15 22 -10 21 -10 -10 -4 -19 3 -43 7 -52 7 -10 0
-18 4 -18 9 0 4 -4 6 -9 2 -5 -3 -12 -1 -16 4 -3 6 4 8 17 5 13 -2 32 -6 43
-8z m2100 -38 c9 -9 -80 -28 -142 -31 -7 0 -13 -3 -13 -7 0 -4 -10 -6 -22 -5
-13 1 -39 -2 -59 -6 -20 -5 -61 -11 -90 -14 -30 -3 -66 -7 -81 -9 -15 -2 -25
0 -23 5 3 4 -1 10 -7 12 -7 3 -3 6 10 6 12 1 22 -5 22 -11 0 -10 2 -10 8 -1 4
7 27 14 50 15 23 2 42 6 42 9 0 3 11 5 25 4 14 -2 25 0 25 3 0 4 10 8 23 8
100 5 128 8 132 14 3 4 16 6 30 5 14 -2 27 0 30 5 6 9 31 8 40 -2z m-278 -90
c-3 -8 -6 -5 -6 6 -1 11 2 17 5 13 3 -3 4 -12 1 -19z m-17 8 c0 -11 -19 -15
-25 -6 -3 5 1 10 9 10 9 0 16 -2 16 -4z m-2054 -173 c18 -19 44 -26 44 -13 0
8 22 7 65 -4 11 -2 24 -5 29 -5 5 -1 6 -4 3 -7 -10 -10 -56 -13 -62 -4 -2 4
-19 5 -37 1 -27 -6 -35 -3 -44 14 -5 11 -18 19 -27 19 -9 -1 -17 2 -17 7 0 15
28 10 46 -8z m2181 -49 c-3 -4 -14 -3 -24 0 -15 6 -15 8 -3 16 16 10 39 -4 27
-16z m-1913 -12 c3 -5 -1 -9 -9 -9 -8 0 -12 4 -9 9 3 4 7 8 9 8 2 0 6 -4 9 -8z
m-16 -30 c15 12 16 11 3 -4 -14 -19 -32 -15 -30 5 0 8 2 8 6 -1 4 -10 8 -10
21 0z m1804 -6 c7 4 8 2 4 -5 -9 -13 -26 -5 -25 12 0 9 2 8 6 -1 2 -6 10 -9
15 -6z m-1917 -6 c3 -5 1 -10 -4 -10 -6 0 -11 5 -11 10 0 6 2 10 4 10 3 0 8
-4 11 -10z m50 0 c-3 -5 -12 -10 -18 -10 -7 0 -6 4 3 10 19 12 23 12 15 0z
m131 -10 c6 6 15 5 24 0 12 -8 11 -10 -5 -10 -12 0 -26 -5 -32 -11 -8 -8 -14
-5 -23 11 -10 20 -10 21 8 11 11 -6 23 -6 28 -1z m1809 0 l20 -9 -20 0 c-11 0
-29 4 -40 9 l-20 9 20 0 c11 0 29 -4 40 -9z m110 -28 c11 -6 15 -12 8 -12 -6
0 -14 4 -17 9 -3 5 -19 7 -35 5 -17 -2 -33 1 -36 5 -8 13 56 8 80 -7z m99 -15
c16 -12 16 -14 2 -14 -9 0 -16 4 -16 8 0 5 -6 6 -14 3 -8 -3 -17 -1 -21 5 -9
16 28 14 49 -2z m-2167 -79 c-3 -8 -6 -5 -6 6 -1 11 2 17 5 13 3 -3 4 -12 1
-19z m-27 0 c0 -4 -6 -8 -12 -9 -7 0 -24 -2 -37 -3 -20 -2 -21 -1 -8 8 17 13
57 16 57 4z m110 -196 c-11 -2 -20 -8 -20 -14 0 -6 -3 -9 -6 -5 -3 3 -15 -3
-27 -14 -11 -10 -27 -19 -34 -19 -7 0 -13 -4 -13 -9 0 -5 -15 -14 -32 -22 -18
-7 -36 -18 -40 -23 -5 -7 -8 -4 -8 7 0 9 5 17 10 17 21 0 25 2 40 15 42 38
135 91 142 81 5 -7 -1 -12 -12 -14z m1620 -22 c19 -16 32 -32 29 -35 -3 -3
-23 11 -45 30 -21 19 -34 34 -29 35 6 0 26 -13 45 -30z m-545 -280 c-3 -5 -2
-10 4 -10 5 0 8 -8 6 -17 -2 -10 -4 -22 -4 -27 -2 -19 -14 4 -17 34 -2 16 1
30 7 30 6 0 7 -4 4 -10z m-428 -95 c0 -8 -5 -15 -10 -15 -5 0 -7 -7 -3 -15 5
-15 -5 -21 -17 -9 -7 7 13 54 23 54 4 0 7 -7 7 -15z"/>
<path d="M1154 2412 c4 -7 3 -12 -1 -12 -5 0 -8 -31 -8 -69 0 -50 3 -67 13
-64 16 7 17 139 0 149 -7 4 -8 3 -4 -4z"/>
<path d="M1001 2343 c6 -21 12 -56 15 -78 2 -22 7 -47 11 -55 7 -19 13 -48 16
-77 1 -13 6 -23 11 -23 5 0 6 -3 2 -7 -3 -4 4 -13 16 -20 l23 -12 -23 -1 c-13
0 -20 -4 -17 -10 4 -6 11 -8 16 -5 11 7 32 -40 34 -75 0 -14 5 -23 10 -20 6 3
8 10 6 15 -2 6 -4 15 -5 20 -1 6 -5 15 -8 21 -4 5 -5 25 -2 42 4 25 2 32 -12
32 -12 0 -14 4 -7 13 10 13 10 36 -2 127 -3 30 -8 71 -9 91 -5 61 -32 86 -29
27 1 -18 2 -33 3 -33 4 0 11 -44 11 -74 0 -18 4 -42 10 -52 7 -14 6 -19 -2
-19 -8 0 -7 -5 2 -17 12 -16 12 -17 -2 -6 -9 7 -16 29 -17 50 -1 20 -6 41 -12
47 -14 14 -13 29 2 20 7 -5 8 -3 2 7 -4 8 -10 21 -11 29 -4 19 -11 63 -12 73
-1 4 -7 7 -15 7 -11 0 -12 -8 -5 -37z"/>
<path d="M1432 2071 c4 -13 18 -16 19 -4 0 4 -5 9 -11 12 -7 2 -11 -2 -8 -8z"/>
<path d="M310 1943 c0 -8 30 -36 110 -104 19 -17 36 -25 38 -19 2 5 -16 27
-39 47 -24 21 -53 48 -65 61 -21 22 -44 29 -44 15z"/>
<path d="M280 1916 c0 -18 78 -86 99 -86 9 0 -8 22 -39 50 -30 28 -56 50 -57
50 -2 0 -3 -6 -3 -14z"/>
<path d="M405 1801 c28 -32 55 -46 55 -28 0 12 -22 27 -65 46 -5 2 -1 -6 10
-18z"/>
<path d="M189 1730 c-15 -10 -17 -8 39 -39 51 -27 65 -23 25 8 -15 11 -33 25
-39 30 -6 5 -17 5 -25 1z"/>
<path d="M495 1731 c-2 -5 4 -11 15 -14 11 -3 20 -12 20 -21 0 -10 6 -13 15
-10 8 4 15 9 15 13 0 11 -59 40 -65 32z"/>
<path d="M100 1504 c0 -11 28 -33 34 -27 3 3 11 1 18 -5 7 -6 16 -11 21 -11 4
-1 8 -1 10 -2 7 -2 45 -10 62 -12 41 -7 80 -20 87 -31 5 -8 8 -7 8 2 0 10 5
10 20 2 11 -6 26 -8 32 -4 13 9 -43 32 -79 33 -13 1 -23 5 -23 9 0 5 -6 9 -12
9 -13 1 -37 6 -88 18 -14 3 -30 7 -37 9 -7 1 -16 5 -19 9 -9 8 -34 9 -34 1z"/>
<path d="M2417 1401 c-42 -10 -79 -16 -81 -14 -2 3 -7 -1 -11 -7 -5 -7 13 -10
60 -8 37 1 69 6 72 10 2 5 9 6 14 2 11 -6 39 13 39 27 0 11 5 11 -93 -10z"/>
<path d="M2268 1365 c-3 -3 -33 -8 -67 -10 -73 -5 -81 -9 -74 -35 5 -18 7 -18
17 -5 6 8 33 17 62 19 51 5 104 21 104 31 0 7 -35 7 -42 0z"/>
<path d="M71 1321 c-9 -6 -8 -11 4 -21 8 -7 15 -10 15 -7 0 3 15 1 33 -4 17
-5 55 -12 82 -15 28 -3 57 -6 65 -7 8 -1 16 3 17 8 3 13 -31 21 -80 21 -20 -1
-37 2 -37 7 0 4 -12 7 -26 7 -14 0 -33 4 -43 9 -9 5 -23 6 -30 2z"/>
<path d="M67 1273 c-13 -12 -7 -22 12 -20 15 1 17 4 9 14 -12 15 -13 15 -21 6z"/>
<path d="M2370 765 c0 -8 5 -15 10 -15 6 0 29 -9 52 -20 38 -18 58 -19 58 -2
0 8 -52 33 -75 36 -8 1 -18 5 -21 9 -12 12 -24 8 -24 -8z"/>
<path d="M2055 560 c-4 -6 -2 -17 4 -23 15 -15 25 -2 13 19 -7 12 -11 13 -17
4z"/>
<path d="M2170 402 c0 -11 68 -82 78 -82 10 0 12 30 3 30 -3 0 -21 14 -40 30
-36 32 -41 35 -41 22z"/>
<path d="M1084 269 c0 -13 3 -15 13 -7 7 6 13 14 13 18 0 3 -6 7 -13 7 -7 0
-13 -8 -13 -18z"/>
<path d="M1166 272 c2 -2 -1 -13 -7 -23 -6 -11 -6 -19 0 -19 13 0 23 32 13 40
-5 4 -7 5 -6 2z"/>
<path d="M1147 184 c-9 -9 4 -35 14 -28 5 3 9 12 9 20 0 14 -12 19 -23 8z"/>
<path d="M800 160 c0 -5 5 -10 10 -10 6 0 10 5 10 10 0 6 -4 10 -10 10 -5 0
-10 -4 -10 -10z"/>
</g>
</svg>
