<svg version="1.1" xmlns="http://www.w3.org/2000/svg" xmlns:xlink="http://www.w3.org/1999/xlink" width="89" height="66"><defs/><g><path fill="rgb(49,114,185)" stroke="none" paint-order="stroke fill markers" fill-rule="evenodd" d=" M 74.69349533319473 6.937625169754028 C 70.87113344669342 3.108634114265442 65.78782969713211 1.0002517700195312 60.3819060921669 1.0002517700195312 C 54.975340366363525 1.0002517700195312 49.89277046918869 3.108634114265442 46.07040858268738 6.937625169754028 C 46.07040858268738 6.937625169754028 44.46336358785629 8.547015070915222 44.46336358785629 8.547015070915222 C 44.46336358785629 8.547015070915222 42.85641032457352 6.937625169754028 42.85641032457352 6.937625169754028 C 39.03331458568573 3.108634114265442 33.95010256767273 1.0002517700195312 28.54417896270752 1.0002517700195312 C 23.137521505355835 1.0002517700195312 18.05504333972931 3.108634114265442 14.232589721679688 6.937625169754028 C 6.34055769443512 14.840925335884094 6.34055769443512 27.701520442962646 14.232589721679688 35.60561645030975 C 14.232589721679688 35.60561645030975 42.95520520210266 64.37388372421265 42.95520520210266 64.37388372421265 C 43.371666431427 64.7911034822464 43.91682702302933 64.99961388111115 44.46272146701813 64.99961388111115 C 45.00852417945862 64.99961388111115 45.553684771060944 64.7911034822464 45.971613705158234 64.37448060512543 C 45.971613705158234 64.37448060512543 74.69349533319473 35.606213331222534 74.69349533319473 35.606213331222534 C 78.51659107208252 31.77781915664673 80.62173837423325 26.68662393093109 80.62173837423325 21.27172029018402 C 80.62173837423325 15.857214570045471 78.51659107208252 10.766218304634094 74.69349533319473 6.937625169754028 Z M 71.67782068252563 32.58599591255188 C 71.67782068252563 32.58599591255188 44.46336358785629 59.844353437423706 44.46336358785629 59.844353437423706 C 44.46336358785629 59.844353437423706 17.248356103897095 32.58599591255188 17.248356103897095 32.58599591255188 C 11.019325315952301 26.346998691558838 11.019325315952301 16.196242928504944 17.248356103897095 9.957444667816162 C 20.265406727790833 6.935635566711426 24.276827335357666 5.271133661270142 28.54417896270752 5.271133661270142 C 32.8107967376709 5.271133661270142 36.82295119762421 6.935635566711426 39.84073567390442 9.957444667816162 C 39.84073567390442 9.957444667816162 42.95520520210266 13.076943278312683 42.95520520210266 13.076943278312683 C 43.78821939229965 13.911382794380188 45.1372235417366 13.911382794380188 45.970146000385284 13.076943278312683 C 45.970146000385284 13.076943278312683 49.08461552858353 9.957444667816162 49.08461552858353 9.957444667816162 C 52.10249173641205 6.935635566711426 56.11391234397888 5.271133661270142 60.381263971328735 5.271133661270142 C 64.64852386713028 5.271133661270142 68.66067832708359 6.935635566711426 71.67782068252563 9.957444667816162 C 77.90675973892212 16.196242928504944 77.90675973892212 26.346998691558838 71.67782068252563 32.58599591255188 Z M 10.950434923171997 27.982253432273865 C 10.950434923171997 27.982253432273865 3.1322467923164368 27.982253432273865 3.1322467923164368 27.982253432273865 C 1.954505443572998 27.982253432273865 1.0000386834144592 28.938058733940125 1.0000386834144592 30.11789333820343 C 1.0000386834144592 31.297528982162476 1.954505443572998 32.253533244132996 3.1322467923164368 32.253533244132996 C 3.1322467923164368 32.253533244132996 10.950434923171997 32.253533244132996 10.950434923171997 32.253533244132996 C 12.128084540367126 32.253533244132996 13.082643032073975 31.297528982162476 13.082643032073975 30.11789333820343 C 13.082643032073975 28.938058733940125 12.128084540367126 27.982253432273865 10.950434923171997 27.982253432273865 Z M 77.75888848304749 28.051093697547913 C 77.75888848304749 28.051093697547913 57.35201305150986 28.051093697547913 57.35201305150986 28.051093697547913 C 57.35201305150986 28.051093697547913 54.176450312137604 21.055649399757385 54.176450312137604 21.055649399757385 C 53.93693923950195 20.52681291103363 53.415261924266815 20.20529305934906 52.821758806705475 20.22220468521118 C 52.24247407913208 20.247074723243713 51.73648285865784 20.62052321434021 51.54311275482178 21.16806197166443 C 51.54311275482178 21.16806197166443 45.052647054195404 39.48733198642731 45.052647054195404 39.48733198642731 C 45.052647054195404 39.48733198642731 37.16189926862717 17.600902676582336 37.16189926862717 17.600902676582336 C 36.96715319156647 17.060725450515747 36.46611547470093 16.689863443374634 35.891875982284546 16.66280484199524 C 35.27773326635361 16.634154558181763 34.783758878707886 16.958061933517456 34.53929430246353 17.47874104976654 C 34.53929430246353 17.47874104976654 29.23711907863617 28.7629736661911 29.23711907863617 28.7629736661911 C 29.23711907863617 28.7629736661911 11.660437107086182 28.7629736661911 11.660437107086182 28.7629736661911 C 10.875031590461731 28.7629736661911 10.238965034484863 29.401238322257996 10.238965034484863 30.18693256378174 C 10.238965034484863 30.973024725914 11.174259901046753 31.541454315185547 11.959665417671204 31.541454315185547 C 11.959665417671204 31.541454315185547 30.43898582458496 31.541454315185547 30.43898582458496 31.541454315185547 C 30.989833772182465 31.541454315185547 31.191643178462982 31.29235601425171 31.42620074748993 30.793562531471252 C 31.42620074748993 30.793562531471252 35.65300703048706 21.797771334648132 35.65300703048706 21.797771334648132 C 35.65300703048706 21.797771334648132 43.729236006736755 44.19672238826752 43.729236006736755 44.19672238826752 C 43.93251311779022 44.760376930236816 44.466941118240356 45.136411905288696 45.066131591796875 45.136411905288696 C 45.067507565021515 45.136411905288696 45.068975269794464 45.136411905288696 45.068975269794464 45.136411905288696 C 45.66954171657562 45.134820222854614 46.204061448574066 44.75500500202179 46.404403150081635 44.18876397609711 C 46.404403150081635 44.18876397609711 53.04567551612854 25.443122029304504 53.04567551612854 25.443122029304504 C 53.04567551612854 25.443122029304504 55.143025636672974 30.06377613544464 55.143025636672974 30.06377613544464 C 55.37336355447769 30.57271659374237 56.17931693792343 30.82997226715088 56.73649436235428 30.82997226715088 C 56.73649436235428 30.82997226715088 78.05885064601898 30.82997226715088 78.05885064601898 30.82997226715088 C 78.84352231025696 30.82997226715088 79.1803605556488 30.260945796966553 79.1803605556488 29.47485363483429 C 79.1803605556488 28.689159393310547 78.54356014728546 28.051093697547913 77.75888848304749 28.051093697547913 Z M 84.86780828237534 27.270373463630676 C 84.86780828237534 27.270373463630676 78.4710922241211 27.270373463630676 78.4710922241211 27.270373463630676 C 77.29335087537766 27.270373463630676 76.33888411521912 28.226576685905457 76.33888411521912 29.40561544895172 C 76.33888411521912 30.585649013519287 77.29335087537766 31.541454315185547 78.4710922241211 31.541454315185547 C 78.4710922241211 31.541454315185547 84.86780828237534 31.541454315185547 84.86780828237534 31.541454315185547 C 86.04545789957047 31.541454315185547 87.00001639127731 30.585649013519287 87.00001639127731 29.40561544895172 C 87.00001639127731 28.226576685905457 86.04545789957047 27.270373463630676 84.86780828237534 27.270373463630676 Z"/></g></svg>