<svg version="1.1" xmlns="http://www.w3.org/2000/svg" xmlns:xlink="http://www.w3.org/1999/xlink" width="72" height="70">
	<defs />
	<g>
		<path fill="rgb(49,114,185)" stroke="none" paint-order="stroke fill markers" fill-rule="evenodd"
			d=" M 52.39319831132889 2.00405752658844 C 42.43775683641434 1.7881855964660645 34.146050453186035 9.638164401054382 33.899659514427185 19.511967420578003 C 33.899659514427185 19.511967420578003 33.775638461112976 24.483189582824707 33.775638461112976 24.483189582824707 C 33.741789519786835 25.838905096054077 34.83256936073303 26.972779870033264 36.19955289363861 27.00222599506378 C 37.56653642654419 27.03187108039856 38.71263039112091 25.946741580963135 38.74647933244705 24.590628147125244 C 38.74647933244705 24.590628147125244 38.87050038576126 19.61980390548706 38.87050038576126 19.61980390548706 C 39.0489182472229 12.470961213111877 45.06247162818909 6.777911067008972 52.27018630504608 6.934492826461792 C 59.477900981903076 7.090676665306091 65.20103228092194 13.038396000862122 65.0227061510086 20.187039732933044 C 64.84438002109528 27.335484504699707 58.83073490858078 33.02873361110687 51.623020231723785 32.87215185165405 C 51.623020231723785 32.87215185165405 20.500065326690674 32.19727849960327 20.500065326690674 32.19727849960327 C 10.544532120227814 31.981406569480896 2.2528257369995117 39.83098745346069 2.006526529788971 49.704790472984314 C 1.7601355910301208 59.578991413116455 9.651342034339905 67.77953827381134 19.606783509254456 67.99560916423798 C 29.562316715717316 68.21128213405609 37.85393136739731 60.361900210380554 38.10032230615616 50.488097190856934 C 38.10032230615616 50.488097190856934 38.22296738624573 45.5715891122818 38.22296738624573 45.5715891122818 C 38.25681632757187 44.21547567844391 37.16603648662567 43.08179986476898 35.79905295372009 43.052552700042725 C 34.432069420814514 43.02290761470795 33.28597545623779 44.10803711414337 33.25212651491165 45.46375262737274 C 33.25212651491165 45.46375262737274 33.12948143482208 50.379862785339355 33.12948143482208 50.379862785339355 C 32.95115530490875 57.52870547771454 26.937510192394257 63.221954584121704 19.729795515537262 63.065571784973145 C 12.522080838680267 62.908990025520325 6.7989495396614075 56.961867570877075 6.977367401123047 49.81302487850189 C 7.155693531036377 42.66398322582245 13.169246912002563 36.971132040023804 20.377053320407867 37.1273158788681 C 20.377053320407867 37.1273158788681 51.50000822544098 37.802388191223145 51.50000822544098 37.802388191223145 C 61.45554143190384 38.01845908164978 69.74715608358383 30.168679237365723 69.99354702234268 20.294876217842102 C 70.23993796110153 10.420675277709961 62.34873151779175 2.2201284170150757 52.39319831132889 2.00405752658844 Z" />
	</g>
</svg>
