<svg version="1.1" xmlns="http://www.w3.org/2000/svg" xmlns:xlink="http://www.w3.org/1999/xlink" width="68" height="67">
	<defs />
	<g>
		<path fill="rgb(49,114,185)" stroke="none" paint-order="stroke fill markers" fill-rule="evenodd"
			d=" M 65.54786229133606 14.023025035858154 C 65.05572253465652 13.075178146362305 64.22380912303925 12.375235795974731 63.20513027906418 12.05272114276886 C 63.20513027906418 12.05272114276886 41.06645494699478 5.040166258811951 41.06645494699478 5.040166258811951 C 41.057648718357086 5.037380814552307 41.04875075817108 5.035789132118225 41.03976106643677 5.033600568771362 C 41.03976106643677 5.033600568771362 40.96344041824341 4.792261719703674 40.96344041824341 4.792261719703674 C 40.29737764596939 2.689649224281311 38.04481774568558 1.5213543176651 35.94278931617737 2.1868765354156494 C 35.94278931617737 2.1868765354156494 4.794608235359192 12.05232322216034 4.794608235359192 12.05232322216034 C 3.7759293913841248 12.374837875366211 2.944107711315155 13.074780225753784 2.45196795463562 14.023422956466675 C 1.9598281979560852 14.972065687179565 1.8666289448738098 16.055205583572388 2.1893405318260193 17.073882341384888 C 2.1893405318260193 17.073882341384888 16.805295050144196 63.20720601081848 16.805295050144196 63.20720601081848 C 17.344676554203033 64.90951037406921 18.923559963703156 65.99961388111115 20.621143996715546 65.99961388111115 C 21.020176231861115 65.99961388111115 21.425904870033264 65.93912994861603 21.825854420661926 65.81279015541077 C 21.825854420661926 65.81279015541077 33.99991512298584 61.956740498542786 33.99991512298584 61.956740498542786 C 33.99991512298584 61.956740498542786 46.17315024137497 65.8125911951065 46.17315024137497 65.8125911951065 C 46.5737419128418 65.93912994861603 46.97928708791733 65.99961388111115 47.37877798080444 65.99961388111115 C 49.076086819171906 65.99961388111115 50.655245423316956 64.90951037406921 51.194443464279175 63.207603931427 C 51.194443464279175 63.207603931427 53.5612091422081 55.73704242706299 53.5612091422081 55.73704242706299 C 53.564603209495544 55.725701689720154 53.56662130355835 55.71515679359436 53.569831907749176 55.704015016555786 C 54.316068053245544 55.32897484302521 54.924431681632996 54.731894969940186 55.316584050655365 53.97564685344696 C 55.8087238073349 53.02779996395111 55.901923060417175 51.94406318664551 55.579303205013275 50.92558538913727 C 55.579303205013275 50.92558538913727 55.33236187696457 50.146456837654114 55.33236187696457 50.146456837654114 C 55.33236187696457 50.146456837654114 65.81039798259735 17.073484420776367 65.81039798259735 17.073484420776367 C 66.13329303264618 16.054807662963867 66.0400020480156 14.972065687179565 65.54786229133606 14.023025035858154 Z M 48.65256226062775 62.402013659477234 C 48.43057191371918 63.10295081138611 47.679565727710724 63.492714047431946 46.978461503982544 63.27047538757324 C 46.978461503982544 63.27047538757324 38.4158718585968 60.5580495595932 38.4158718585968 60.5580495595932 C 38.4158718585968 60.5580495595932 50.44380420446396 56.74855661392212 50.44380420446396 56.74855661392212 C 50.44380420446396 56.74855661392212 48.65256226062775 62.402013659477234 48.65256226062775 62.402013659477234 Z M 52.94981837272644 52.74766385555267 C 52.785894095897675 53.06420969963074 52.50849789381027 53.297590136528015 52.16890770196915 53.40482974052429 C 52.16890770196915 53.40482974052429 33.64610654115677 59.27177119255066 33.64610654115677 59.27177119255066 C 33.61702764034271 59.27992856502533 33.58859086036682 59.28927969932556 33.56024581193924 59.299028754234314 C 33.56024581193924 59.299028754234314 21.0210018157959 63.2706743478775 21.0210018157959 63.2706743478775 C 20.320447981357574 63.492515087127686 19.56944179534912 63.10295081138611 19.347267985343933 62.402013659477234 C 19.347267985343933 62.402013659477234 4.731313467025757 16.26868999004364 4.731313467025757 16.26868999004364 C 4.623712360858917 15.929064750671387 4.654901087284088 15.567752838134766 4.818917095661163 15.251803874969482 C 4.982841372489929 14.935456991195679 5.2602375745773315 14.702275514602661 5.599827766418457 14.594637989997864 C 5.599827766418457 14.594637989997864 36.747917115688324 4.729390263557434 36.747917115688324 4.729390263557434 C 36.747917115688324 4.729390263557434 36.747733652591705 4.729390263557434 36.747733652591705 4.729390263557434 C 37.448837876319885 4.507350564002991 38.19929367303848 4.896516919136047 38.42146748304367 5.597653031349182 C 38.42146748304367 5.597653031349182 53.03742200136185 51.730777740478516 53.03742200136185 51.730777740478516 C 53.14502310752869 52.07060194015503 53.113834381103516 52.43171489238739 52.94981837272644 52.74766385555267 Z M 44.444652676582336 15.780242443084717 C 44.444652676582336 15.780242443084717 55.44555860757828 19.264435291290283 55.44555860757828 19.264435291290283 C 55.44555860757828 19.264435291290283 50.49691677093506 34.883813977241516 50.49691677093506 34.883813977241516 C 50.49691677093506 34.883813977241516 44.444652676582336 15.780242443084717 44.444652676582336 15.780242443084717 Z M 63.26860851049423 16.26809310913086 C 63.26860851049423 16.26809310913086 53.93382269144058 45.73212456703186 53.93382269144058 45.73212456703186 C 53.93382269144058 45.73212456703186 51.895639419555664 39.29814624786377 51.895639419555664 39.29814624786377 C 51.895639419555664 39.29814624786377 57.987531542778015 20.06982660293579 57.987531542778015 20.06982660293579 C 58.202550292015076 19.390775084495544 58.14026457071304 18.668549180030823 57.8123242855072 18.036253333091736 C 57.48429226875305 17.40455436706543 56.929775059223175 16.937793493270874 56.25068640708923 16.72271740436554 C 56.25068640708923 16.72271740436554 43.73336625099182 12.7578364610672 43.73336625099182 12.7578364610672 C 43.645762622356415 12.730180978775024 43.55760860443115 12.711876630783081 43.46963804960251 12.702127575874329 C 43.46963804960251 12.702127575874329 42.024407505989075 8.140962600708008 42.024407505989075 8.140962600708008 C 42.024407505989075 8.140962600708008 62.40009421110153 14.594637989997864 62.40009421110153 14.594637989997864 C 62.73968440294266 14.70187759399414 63.01717233657837 14.935456991195679 63.181096613407135 15.251405954360962 C 63.3450208902359 15.567752838134766 63.37620961666107 15.928467869758606 63.26860851049423 16.26809310913086 Z M 29.18602693080902 25.0139901638031 C 28.109740674495697 25.355207085609436 27.194076359272003 26.060123443603516 26.5792915225029 26.978126287460327 C 25.547861993312836 26.58199632167816 24.39305353164673 26.53305208683014 23.316950738430023 26.874070048332214 C 22.063072204589844 27.2715927362442 21.038797736167908 28.1330908536911 20.433002591133118 29.30078887939453 C 19.82711571455002 30.4682879447937 19.71235954761505 31.802316784858704 20.109648883342743 33.0557667016983 C 20.525009334087372 34.366716146469116 21.49323582649231 35.416430711746216 22.76610279083252 35.93651294708252 C 22.76610279083252 35.93651294708252 28.285406589508057 38.19113111495972 28.285406589508057 38.19113111495972 C 28.617383062839508 38.32662308216095 28.97119164466858 38.39466750621796 29.325458884239197 38.39466750621796 C 29.60551530122757 38.39466750621796 29.88575518131256 38.35209000110626 30.155904591083527 38.26673603057861 C 30.76812094449997 38.072351813316345 31.295852541923523 37.66766655445099 31.6418639421463 37.12729036808014 C 31.6418639421463 37.12729036808014 34.855403542518616 32.10573124885559 34.855403542518616 32.10573124885559 C 35.59659445285797 30.947782278060913 35.78335988521576 29.531582832336426 35.36799943447113 28.220832347869873 C 34.97071009874344 26.966984510421753 34.10889220237732 25.942537903785706 32.9411495923996 25.336902737617493 C 31.773590445518494 24.73146653175354 30.4399054646492 24.617263317108154 29.18602693080902 25.0139901638031 Z M 32.609448313713074 30.668243050575256 C 32.609448313713074 30.668243050575256 29.39590871334076 35.689603209495544 29.39590871334076 35.689603209495544 C 29.385359585285187 35.706315875053406 29.369306564331055 35.71865141391754 29.350593328475952 35.72422230243683 C 29.33178836107254 35.73058903217316 29.31151568889618 35.729992151260376 29.293352842330933 35.722033739089966 C 29.293352842330933 35.722033739089966 23.774507701396942 33.46781349182129 23.774507701396942 33.46781349182129 C 23.236502170562744 33.24836027622223 22.82719600200653 32.80408191680908 22.65162181854248 32.250574350357056 C 22.46944296360016 31.675579071044922 22.52218860387802 31.0639750957489 22.79986000061035 30.52897083759308 C 23.07762312889099 29.993369698524475 23.54728865623474 29.59823453426361 24.122353732585907 29.41618585586548 C 24.349572777748108 29.343963265419006 24.581286668777466 29.30874729156494 24.81061553955078 29.30874729156494 C 25.350639164447784 29.30874729156494 25.877269983291626 29.50412631034851 26.299235105514526 29.875585198402405 C 26.650291740894318 30.18437159061432 27.13738626241684 30.28703510761261 27.582834661006927 30.14597225189209 C 28.028466522693634 30.00411355495453 28.367598056793213 29.640016198158264 28.476575136184692 29.185391902923584 C 28.66334056854248 28.40626335144043 29.22978287935257 27.797643780708313 29.991429924964905 27.556105971336365 C 30.566770195961 27.373659372329712 31.178252696990967 27.42618489265442 31.713414549827576 27.703933477401733 C 32.2487598657608 27.981881022453308 32.64393937587738 28.451626300811768 32.8261182308197 29.02602469921112 C 33.00169241428375 29.580328106880188 32.92261981964111 30.17840278148651 32.609448313713074 30.668243050575256 Z M 36.29265344142914 11.745725393295288 C 35.848672747612 10.3440500497818 34.34711903333664 9.564722537994385 32.94527751207352 10.009000897407532 C 32.94527751207352 10.009000897407532 11.749143838882446 16.72271740436554 11.749143838882446 16.72271740436554 C 11.070238649845123 16.937793493270874 10.515537977218628 17.40435540676117 10.187597692012787 18.036253333091736 C 9.859473943710327 18.668549180030823 9.797188222408295 19.390775084495544 10.012390434741974 20.06982660293579 C 10.012390434741974 20.06982660293579 19.892887234687805 51.25705325603485 19.892887234687805 51.25705325603485 C 20.252474904060364 52.39132595062256 21.305002689361572 53.118326902389526 22.43669480085373 53.117928981781006 C 22.702808022499084 53.117928981781006 22.973507821559906 53.078136920928955 23.240263164043427 52.99357879161835 C 23.240263164043427 52.99357879161835 44.4363968372345 46.2800612449646 44.4363968372345 46.2800612449646 C 45.11530202627182 46.064985156059265 45.670002698898315 45.59842324256897 45.99794298410416 44.96612739562988 C 46.326066732406616 44.334229469299316 46.38835245370865 43.611605644226074 46.17315024137497 42.93295204639435 C 46.17315024137497 42.93295204639435 36.29265344142914 11.745725393295288 36.29265344142914 11.745725393295288 Z M 22.434860169887543 50.45146298408508 C 22.434860169887543 50.45146298408508 12.554363369941711 19.264634251594543 12.554363369941711 19.264634251594543 C 12.554363369941711 19.264634251594543 23.97906905412674 15.646342158317566 23.97906905412674 15.646342158317566 C 23.97906905412674 15.646342158317566 33.75077223777771 12.551713585853577 33.75077223777771 12.551713585853577 C 33.75077223777771 12.551713585853577 43.63117730617523 43.738144397735596 43.63117730617523 43.738144397735596 C 43.63117730617523 43.738144397735596 22.434860169887543 50.45146298408508 22.434860169887543 50.45146298408508 Z" />
	</g>
</svg>
