<svg version="1.1" xmlns="http://www.w3.org/2000/svg" xmlns:xlink="http://www.w3.org/1999/xlink" width="119" height="47"><defs/><g><path fill="rgb(49,114,185)" stroke="none" paint-order="stroke fill markers" fill-rule="evenodd" d=" M 1.9985566139221191 27.439339876174927 C 1.9985566139221191 27.439339876174927 1.9985566139221191 2.326769232749939 1.9985566139221191 2.326769232749939 C 1.9985566139221191 2.326769232749939 5.223929584026337 2.326769232749939 5.223929584026337 2.326769232749939 C 5.223929584026337 2.326769232749939 5.223929584026337 24.17479920387268 5.223929584026337 24.17479920387268 C 5.223929584026337 24.17479920387268 14.137117207050323 24.17479920387268 14.137117207050323 24.17479920387268 C 14.137117207050323 24.17479920387268 14.137117207050323 27.439339876174927 14.137117207050323 27.439339876174927 C 14.137117207050323 27.439339876174927 1.9985566139221191 27.439339876174927 1.9985566139221191 27.439339876174927 Z M 23.009851217269897 2.326769232749939 C 23.009851217269897 2.326769232749939 23.009851217269897 27.439339876174927 23.009851217269897 27.439339876174927 C 23.009851217269897 27.439339876174927 19.78447824716568 27.439339876174927 19.78447824716568 27.439339876174927 C 19.78447824716568 27.439339876174927 19.78447824716568 2.326769232749939 19.78447824716568 2.326769232749939 C 19.78447824716568 2.326769232749939 23.009851217269897 2.326769232749939 23.009851217269897 2.326769232749939 Z M 51.00320088863373 5.764206409454346 C 53.496189177036285 8.27508544921875 54.74346303939819 11.304455041885376 54.74346303939819 14.851519346237183 C 54.74346303939819 18.39838469028473 53.496189177036285 21.427754282951355 51.00320088863373 23.93962812423706 C 48.51039606332779 26.450507164001465 45.5027020573616 27.705946683883667 41.98121964931488 27.705946683883667 C 38.458819925785065 27.705946683883667 35.45204323530197 26.450507164001465 32.95832109451294 23.93962812423706 C 30.46542453765869 21.427754282951355 29.218976259231567 18.39838469028473 29.218976259231567 14.851519346237183 C 29.218976259231567 11.304455041885376 30.46542453765869 8.27508544921875 32.95832109451294 5.764206409454346 C 35.45204323530197 3.25233256816864 38.458819925785065 1.996893048286438 41.98121964931488 1.996893048286438 C 45.5027020573616 1.996893048286438 48.51039606332779 3.25233256816864 51.00320088863373 5.764206409454346 Z M 41.98121964931488 5.277151584625244 C 39.3522852063179 5.277151584625244 37.110916554927826 6.211270213127136 35.25729715824127 8.07891058921814 C 33.40294390916824 9.946948885917664 32.475721418857574 12.204352498054504 32.475721418857574 14.851519346237183 C 32.475721418857574 17.4984872341156 33.405420660972595 19.759472131729126 35.26481914520264 21.632086515426636 C 37.12412589788437 23.505098819732666 39.36292606592178 24.44140601158142 41.98121964931488 24.44140601158142 C 44.609420239925385 24.44140601158142 46.85060542821884 23.505098819732666 48.70505040884018 21.632086515426636 C 50.55940365791321 19.759472131729126 51.48662614822388 17.4984872341156 51.48662614822388 14.851519346237183 C 51.48662614822388 12.204352498054504 50.55940365791321 9.946948885917664 48.70505040884018 8.07891058921814 C 46.85060542821884 6.211270213127136 44.609420239925385 5.277151584625244 41.98121964931488 5.277151584625244 Z M 60.63987523317337 2.326769232749939 C 60.63987523317337 2.326769232749939 63.58482486009598 2.326769232749939 63.58482486009598 2.326769232749939 C 63.58482486009598 2.326769232749939 73.86903220415115 20.250506162643433 73.86903220415115 20.250506162643433 C 73.86903220415115 20.250506162643433 73.86903220415115 2.326769232749939 73.86903220415115 2.326769232749939 C 73.86903220415115 2.326769232749939 77.11091685295105 2.326769232749939 77.11091685295105 2.326769232749939 C 77.11091685295105 2.326769232749939 77.11091685295105 27.439339876174927 77.11091685295105 27.439339876174927 C 77.11091685295105 27.439339876174927 74.28971308469772 27.439339876174927 74.28971308469772 27.439339876174927 C 74.28971308469772 27.439339876174927 63.8653399348259 9.295353889465332 63.8653399348259 9.295353889465332 C 63.8653399348259 9.295353889465332 63.8653399348259 27.439339876174927 63.8653399348259 27.439339876174927 C 63.8653399348259 27.439339876174927 60.63987523317337 27.439339876174927 60.63987523317337 27.439339876174927 C 60.63987523317337 27.439339876174927 60.63987523317337 2.326769232749939 60.63987523317337 2.326769232749939 Z M 86.91830360889435 2.326769232749939 C 86.91830360889435 2.326769232749939 86.91830360889435 27.439339876174927 86.91830360889435 27.439339876174927 C 86.91830360889435 27.439339876174927 83.69210505485535 27.439339876174927 83.69210505485535 27.439339876174927 C 83.69210505485535 27.439339876174927 83.69210505485535 2.326769232749939 83.69210505485535 2.326769232749939 C 83.69210505485535 2.326769232749939 86.91830360889435 2.326769232749939 86.91830360889435 2.326769232749939 Z M 112.80815714597702 21.459388971328735 C 112.80815714597702 21.459388971328735 115.22344881296158 23.64118766784668 115.22344881296158 23.64118766784668 C 112.27272009849548 26.35142493247986 109.15127897262573 27.705946683883667 105.85829985141754 27.705946683883667 C 102.33590012788773 27.705946683883667 99.33398520946503 26.456078052520752 96.8510873913765 23.95534598827362 C 94.36800611019135 21.45441496372223 93.12651133537292 18.43001937866211 93.12651133537292 14.882955074310303 C 93.12651133537292 11.34663462638855 94.36800611019135 8.32263696193695 96.8510873913765 5.810763120651245 C 99.33398520946503 3.299884080886841 102.33590012788773 2.0444445610046387 105.85829985141754 2.0444445610046387 C 109.15127897262573 2.0444445610046387 112.27272009849548 3.399563193321228 115.22344881296158 6.109203577041626 C 115.22344881296158 6.109203577041626 112.80815714597702 8.32263696193695 112.80815714597702 8.32263696193695 C 110.5850430727005 6.334227681159973 108.26781243085861 5.340420961380005 105.85829985141754 5.340420961380005 C 103.24991327524185 5.340420961380005 101.01936894655228 6.271754145622253 99.16492396593094 8.13402259349823 C 97.3104789853096 9.996490001678467 96.38334822654724 12.245935201644897 96.38334822654724 14.882955074310303 C 96.38334822654724 17.53032088279724 97.3104789853096 19.7851380109787 99.16492396593094 21.648202300071716 C 101.01936894655228 23.510072827339172 103.24991327524185 24.44140601158142 105.85829985141754 24.44140601158142 C 108.26781243085861 24.44140601158142 110.5850430727005 23.447599291801453 112.80815714597702 21.459388971328735 Z M 54.97682809829712 42.86353850364685 C 54.97682809829712 42.86353850364685 58.32191073894501 42.86353850364685 58.32191073894501 42.86353850364685 C 58.32191073894501 42.86353850364685 58.32191073894501 43.53741705417633 58.32191073894501 43.53741705417633 C 58.32191073894501 43.53741705417633 54.2468284368515 43.53741705417633 54.2468284368515 43.53741705417633 C 54.2468284368515 43.53741705417633 54.2468284368515 36.308592319488525 54.2468284368515 36.308592319488525 C 54.2468284368515 36.308592319488525 54.97682809829712 36.308592319488525 54.97682809829712 36.308592319488525 C 54.97682809829712 36.308592319488525 54.97682809829712 42.86353850364685 54.97682809829712 42.86353850364685 Z M 59.537720680236816 41.33234000205994 C 59.558452010154724 41.56969964504242 59.615325570106506 41.79492270946503 59.71017599105835 42.00621855258942 C 59.80502641201019 42.217116475105286 59.92959785461426 42.39916515350342 60.08554148674011 42.55196666717529 C 60.24065953493118 42.70476818084717 60.41962778568268 42.82613396644592 60.62253797054291 42.914273381233215 C 60.82553988695145 43.00320863723755 61.044870018959045 43.047178864479065 61.281629145145416 43.047178864479065 C 61.639657378196716 43.047178864479065 61.948976159095764 42.96421241760254 62.208943367004395 42.797284722328186 C 62.468727111816406 42.62995910644531 62.66668379306793 42.43816137313843 62.80198782682419 42.22029983997345 C 62.80198782682419 42.22029983997345 63.31917029619217 42.6490592956543 63.31917029619217 42.6490592956543 C 63.03544461727142 43.00977432727814 62.72273176908493 43.26822376251221 62.38130694627762 43.42540240287781 C 62.039790391922 43.58138728141785 61.67350631952286 43.66037452220917 61.281629145145416 43.66037452220917 C 60.9302973151207 43.66037452220917 60.60364127159119 43.59710514545441 60.30331218242645 43.470964312553406 C 60.002157509326935 43.344624519348145 59.74402493238449 43.1701363325119 59.52790540456772 42.945908069610596 C 59.311785876750946 42.72048604488373 59.14098173379898 42.45547091960907 59.01567643880844 42.14887309074402 C 58.89101326465607 41.84227526187897 58.8283606171608 41.50941467285156 58.8283606171608 41.14770483970642 C 58.8283606171608 40.78718876838684 58.88945382833481 40.453930258750916 59.01063120365143 40.147332429885864 C 59.13272589445114 39.841729402542114 59.301053285598755 39.575719475746155 59.51799839735031 39.35149121284485 C 59.734117925167084 39.12706398963928 59.98738873004913 38.95197892189026 60.27771908044815 38.82544016838074 C 60.56814116239548 38.70009517669678 60.88241344690323 38.63682579994202 61.220627665519714 38.63682579994202 C 61.578655898571014 38.63682579994202 61.89953285455704 38.70168685913086 62.18335026502609 38.830613136291504 C 62.46707594394684 38.96013629436493 62.70539450645447 39.13203799724579 62.8984894156456 39.34651720523834 C 63.09066700935364 39.560996413230896 63.23752921819687 39.81248223781586 63.338984310626984 40.101770520210266 C 63.44053113460541 40.391655683517456 63.4916256070137 40.69904935359955 63.4916256070137 41.025742173194885 C 63.4916256070137 41.025742173194885 63.4916256070137 41.33234000205994 63.4916256070137 41.33234000205994 C 63.4916256070137 41.33234000205994 59.537720680236816 41.33234000205994 59.537720680236816 41.33234000205994 Z M 62.761534214019775 40.78062307834625 C 62.761534214019775 40.32520294189453 62.62632191181183 39.95553469657898 62.355713844299316 39.67281210422516 C 62.08593136072159 39.39048743247986 61.707355260849 39.24942457675934 61.220627665519714 39.24942457675934 C 61.00450813770294 39.24942457675934 60.79490154981613 39.29180312156677 60.59208309650421 39.37636125087738 C 60.38917291164398 39.46191418170929 60.211764097213745 39.575719475746155 60.05994838476181 39.71877193450928 C 59.908132672309875 39.86162543296814 59.78612971305847 40.02536976337433 59.69540721178055 40.20901012420654 C 59.60385912656784 40.3934463262558 59.558452010154724 40.58285653591156 59.558452010154724 40.78062307834625 C 59.558452010154724 40.78062307834625 62.761534214019775 40.78062307834625 62.761534214019775 40.78062307834625 Z M 65.07216018438339 44.497002601623535 C 65.26846569776535 44.76201772689819 65.52338767051697 44.974905252456665 65.83756822347641 45.13526725769043 C 66.15193223953247 45.295629262924194 66.50170463323593 45.375412344932556 66.88688540458679 45.375412344932556 C 67.2243657708168 45.375412344932556 67.51221936941147 45.32547330856323 67.74815291166306 45.22738587856293 C 67.98482030630112 45.12850260734558 68.1754384636879 44.99400544166565 68.32147508859634 44.82369542121887 C 68.46668612957001 44.654181241989136 68.57144355773926 44.45482301712036 68.6357473731041 44.22681450843811 C 68.69922560453415 43.9986070394516 68.73142337799072 43.75527858734131 68.73142337799072 43.49682915210724 C 68.73142337799072 43.49682915210724 68.73142337799072 42.6385143995285 68.73142337799072 42.6385143995285 C 68.73142337799072 42.6385143995285 68.71160936355591 42.6385143995285 68.71160936355591 42.6385143995285 C 68.49475598335266 42.96580410003662 68.2314864397049 43.196797013282776 67.92060822248459 43.33288586139679 C 67.60954654216766 43.46917366981506 67.28206491470337 43.53741705417633 66.93724602460861 43.53741705417633 C 66.59325271844864 43.53741705417633 66.26989901065826 43.47593832015991 65.96966165304184 43.353776693344116 C 65.66859871149063 43.23181402683258 65.40707206726074 43.062299847602844 65.1843478679657 42.84782063961029 C 64.96079808473587 42.63334143161774 64.78513216972351 42.37747848033905 64.65725839138031 42.07744634151459 C 64.52846729755402 41.777613162994385 64.46416348218918 41.45430266857147 64.46416348218918 41.10791277885437 C 64.46416348218918 40.76052808761597 64.52516496181488 40.43662071228027 64.64652580022812 40.13758337497711 C 64.76852875947952 39.83834707736969 64.93520498275757 39.575719475746155 65.14884775876999 39.35149121284485 C 65.36166495084763 39.12706398963928 65.61493575572968 38.95197892189026 65.90856844186783 38.82544016838074 C 66.20229285955429 38.70009517669678 66.52564656734467 38.63682579994202 66.8770701289177 38.63682579994202 C 67.01897883415222 38.63682579994202 67.16905164718628 38.650156140327454 67.32747203111649 38.67781162261963 C 67.48662626743317 38.705069184303284 67.64504665136337 38.752222776412964 67.80429261922836 38.82046616077423 C 67.96262127161026 38.8887095451355 68.12021607160568 38.98241984844208 68.27524238824844 39.10119915008545 C 68.4311860203743 39.22017741203308 68.57630532979965 39.371387243270874 68.71160936355591 39.55582344532013 C 68.71160936355591 39.55582344532013 68.73142337799072 39.55582344532013 68.73142337799072 39.55582344532013 C 68.73142337799072 39.55582344532013 68.73142337799072 38.75918638706207 68.73142337799072 38.75918638706207 C 68.73142337799072 38.75918638706207 69.40042155981064 38.75918638706207 69.40042155981064 38.75918638706207 C 69.40042155981064 38.75918638706207 69.40042155981064 43.49682915210724 69.40042155981064 43.49682915210724 C 69.40042155981064 43.75527858734131 69.36822378635406 44.03103756904602 69.30474555492401 44.32331025600433 C 69.24044173955917 44.61578190326691 69.11504471302032 44.88517415523529 68.92938005924225 45.13009428977966 C 68.74380713701248 45.375412344932556 68.48475724458694 45.57974457740784 68.15397328138351 45.742693066596985 C 67.82245546579361 45.906238436698914 67.39012467861176 45.98761320114136 66.8564305305481 45.98761320114136 C 66.38373786211014 45.98761320114136 65.96058022975922 45.90962076187134 65.58934265375137 45.75244212150574 C 65.21737122535706 45.59605932235718 64.87998259067535 45.35531735420227 64.5755255818367 45.02802765369415 C 64.5755255818367 45.02802765369415 65.07216018438339 44.497002601623535 65.07216018438339 44.497002601623535 Z M 65.1941631436348 41.08702194690704 C 65.1941631436348 41.338905692100525 65.23957026004791 41.57566845417023 65.33111834526062 41.79671335220337 C 65.42193257808685 42.01775825023651 65.5473296046257 42.211545586586 65.7056582570076 42.37907016277313 C 65.86490422487259 42.545400977134705 66.05047714710236 42.678306460380554 66.2633860707283 42.77639389038086 C 66.47611153125763 42.87607300281525 66.7079171538353 42.92422139644623 66.95788562297821 42.92422139644623 C 67.20124942064285 42.92422139644623 67.43213772773743 42.88084805011749 67.65247690677643 42.79211175441742 C 67.87189877033234 42.703176498413086 68.06572753190994 42.57942318916321 68.23478877544403 42.41906118392944 C 68.40394175052643 42.25949501991272 68.53429228067398 42.066901445388794 68.62510651350021 41.84227526187897 C 68.71665459871292 41.61824595928192 68.75866764783859 41.36636221408844 68.75206297636032 41.08702194690704 C 68.75206297636032 40.83533716201782 68.71160936355591 40.59857439994812 68.62996828556061 40.37752950191498 C 68.54915279150009 40.156484603881836 68.4311860203743 39.96309518814087 68.27524238824844 39.795172691345215 C 68.12021607160568 39.62884187698364 67.93134081363678 39.49613535404205 67.70769929885864 39.39705312252045 C 67.4849750995636 39.29836881160736 67.23500663042068 39.24942457675934 66.95788562297821 39.24942457675934 C 66.7079171538353 39.24942457675934 66.47611153125763 39.29836881160736 66.2633860707283 39.39705312252045 C 66.05047714710236 39.49613535404205 65.86490422487259 39.62884187698364 65.7056582570076 39.795172691345215 C 65.5473296046257 39.96309518814087 65.42193257808685 40.156484603881836 65.33111834526062 40.37752950191498 C 65.23957026004791 40.59857439994812 65.1941631436348 40.83533716201782 65.1941631436348 41.08702194690704 Z M 73.94159185886383 40.60772657394409 C 73.94159185886383 40.60772657394409 73.94159185886383 40.484769105911255 73.94159185886383 40.484769105911255 C 73.94159185886383 39.661272406578064 73.53650534152985 39.24942457675934 72.7255984544754 39.24942457675934 C 72.17135643959045 39.24942457675934 71.6879311800003 39.43604934215546 71.27623999118805 39.810890555381775 C 71.27623999118805 39.810890555381775 70.8705113530159 39.33139622211456 70.8705113530159 39.33139622211456 C 71.31669360399246 38.86801767349243 71.98578351736069 38.63682579994202 72.87741416692734 38.63682579994202 C 73.10756862163544 38.63682579994202 73.32864165306091 38.67084801197052 73.54155057668686 38.738494515419006 C 73.75427603721619 38.80633997917175 73.9382895231247 38.91099309921265 74.09423315525055 39.050663232803345 C 74.24935120344162 39.19033336639404 74.37465649843216 39.364821553230286 74.46868133544922 39.575719475746155 C 74.56353175640106 39.786617398262024 74.61059004068375 40.03949594497681 74.61059004068375 40.33196759223938 C 74.61059004068375 40.33196759223938 74.61059004068375 42.46541893482208 74.61059004068375 42.46541893482208 C 74.61059004068375 42.6490592956543 74.61967146396637 42.8412549495697 74.63618314266205 43.04220485687256 C 74.65269482135773 43.243353724479675 74.67168325185776 43.407893896102905 74.69232285022736 43.53741705417633 C 74.69232285022736 43.53741705417633 74.04304695129395 43.53741705417633 74.04304695129395 43.53741705417633 C 74.02323293685913 43.42202007770538 74.00754684209824 43.29647612571716 73.99763983488083 43.15998935699463 C 73.98782455921173 43.023900508880615 73.98277932405472 42.890995025634766 73.98277932405472 42.76127290725708 C 73.98277932405472 42.76127290725708 73.96223145723343 42.76127290725708 73.96223145723343 42.76127290725708 C 73.76592594385147 43.08199691772461 73.53494590520859 43.31119918823242 73.26764017343521 43.45086932182312 C 73.00116002559662 43.59053945541382 72.67450398206711 43.66037452220917 72.28923147916794 43.66037452220917 C 72.07980835437775 43.66037452220917 71.87763202190399 43.63033151626587 71.68132650852203 43.573229908943176 C 71.48502099514008 43.51573038101196 71.31174010038376 43.42699408531189 71.15919053554535 43.30821478366852 C 71.00737482309341 43.188440680503845 70.88610571622849 43.04220485687256 70.79455763101578 42.86851251125336 C 70.70300954580307 42.695019125938416 70.65760242938995 42.49227857589722 70.65760242938995 42.2610867023468 C 70.65760242938995 41.87311410903931 70.75749808549881 41.56810796260834 70.9571059346199 41.347063064575195 C 71.1557964682579 41.12601816654205 71.40576493740082 40.96167695522308 71.70691961050034 40.85185086727142 C 72.00724869966507 40.744014382362366 72.32803392410278 40.6757709980011 72.6695504784584 40.64751863479614 C 73.01106703281403 40.62105691432953 73.32377988100052 40.60772657394409 73.60750555992126 40.60772657394409 C 73.60750555992126 40.60772657394409 73.94159185886383 40.60772657394409 73.94159185886383 40.60772657394409 Z M 73.59759855270386 41.158448696136475 C 73.42853730916977 41.158448696136475 73.2173712849617 41.167600870132446 72.96410048007965 41.18431353569031 C 72.71000409126282 41.20102620124817 72.46664029359818 41.2424099445343 72.23400908708572 41.306674122810364 C 72.00055229663849 41.371336221694946 71.80177003145218 41.472010135650635 71.63591939210892 41.60809898376465 C 71.47016048431396 41.74418783187866 71.38769382238388 41.93140947818756 71.38769382238388 42.169564962387085 C 71.38769382238388 42.325947761535645 71.41979986429214 42.460444927215576 71.48419541120529 42.57265853881836 C 71.54767364263535 42.68487215042114 71.63435995578766 42.77639389038086 71.74241971969604 42.84782063961029 C 71.85038775205612 42.91924738883972 71.97000569105148 42.97077810764313 72.10209912061691 43.00161695480347 C 72.23400908708572 43.032057881355286 72.36766195297241 43.047178864479065 72.50214040279388 43.047178864479065 C 72.74550420045853 43.047178864479065 72.9566702246666 43.00659096240997 73.13563847541809 42.92422139644623 C 73.31460672616959 42.842846632003784 73.46559685468674 42.733020544052124 73.58686596155167 42.593549370765686 C 73.70896065235138 42.45387923717499 73.79803198575974 42.29033386707306 73.8557311296463 42.10331118106842 C 73.91269642114639 41.915691614151 73.94159185886383 41.71633338928223 73.94159185886383 41.50503754615784 C 73.94159185886383 41.50503754615784 73.94159185886383 41.158448696136475 73.94159185886383 41.158448696136475 C 73.94159185886383 41.158448696136475 73.59759855270386 41.158448696136475 73.59759855270386 41.158448696136475 Z M 76.98304307460785 43.53741705417633 C 76.98304307460785 43.53741705417633 76.31404489278793 43.53741705417633 76.31404489278793 43.53741705417633 C 76.31404489278793 43.53741705417633 76.31404489278793 35.81855309009552 76.31404489278793 35.81855309009552 C 76.31404489278793 35.81855309009552 76.98304307460785 35.81855309009552 76.98304307460785 35.81855309009552 C 76.98304307460785 35.81855309009552 76.98304307460785 43.53741705417633 76.98304307460785 43.53741705417633 Z M 85.05147486925125 37.50374686717987 C 84.73390024900436 37.03340470790863 84.27111458778381 36.79922842979431 83.66238403320312 36.79922842979431 C 83.47350877523422 36.79922842979431 83.28784412145615 36.82389950752258 83.1054818034172 36.87562918663025 C 82.92238563299179 36.927159905433655 82.75910347700119 37.005152344703674 82.61389243602753 37.10980546474457 C 82.46785581111908 37.21605026721954 82.35163193941116 37.35253703594208 82.26412004232407 37.51846992969513 C 82.17578256130219 37.68539762496948 82.13211834430695 37.88077664375305 82.13211834430695 38.1058007478714 C 82.13211834430695 38.432493567466736 82.22375816106796 38.6869637966156 82.4060287475586 38.86602807044983 C 82.58829933404922 39.04747986793518 82.8143258690834 39.19530737400055 83.08493393659592 39.3107043504715 C 83.35545027256012 39.426300287246704 83.65073412656784 39.53015756607056 83.97170281410217 39.622276186943054 C 84.2925797700882 39.71379792690277 84.5886892080307 39.83675539493561 84.85847169160843 39.98955690860748 C 85.12898802757263 40.14255738258362 85.3559318780899 40.34509897232056 85.53820246458054 40.59698271751404 C 85.72047305107117 40.84886646270752 85.8112872838974 41.19266986846924 85.8112872838974 41.628193974494934 C 85.8112872838974 41.95548367500305 85.74193823337555 42.24954700469971 85.60415744781494 42.51117980480194 C 85.46564280986786 42.773011565208435 85.28245490789413 42.992464780807495 85.05642837285995 43.1701363325119 C 84.82957625389099 43.34721100330353 84.57630544900894 43.48270297050476 84.29588210582733 43.57820391654968 C 84.01545876264572 43.673704862594604 83.73329252004623 43.721057415008545 83.44956684112549 43.721057415008545 C 83.01063138246536 43.721057415008545 82.59325283765793 43.63789200782776 82.19816505908966 43.470964312553406 C 81.80298554897308 43.30463349819183 81.46642249822617 43.030466198921204 81.18930149078369 42.6490592956543 C 81.18930149078369 42.6490592956543 81.85829967260361 42.169564962387085 81.85829967260361 42.169564962387085 C 82.01341772079468 42.434779047966 82.22861993312836 42.647467613220215 82.50500708818436 42.80782961845398 C 82.78130251169205 42.9673957824707 83.10805028676987 43.047178864479065 83.4850669503212 43.047178864479065 C 83.66733753681183 43.047178864479065 83.84878253936768 43.01892650127411 84.0310531258583 42.960631132125854 C 84.21258985996246 42.90253472328186 84.37587201595306 42.81797659397125 84.52108305692673 42.70476818084717 C 84.6654685139656 42.593549370765686 84.78508645296097 42.45547091960907 84.87993687391281 42.29192554950714 C 84.97396171092987 42.12818121910095 85.02092826366425 41.941357493400574 85.02092826366425 41.730459570884705 C 85.02092826366425 41.47857582569122 84.96818262338638 41.269070625305176 84.86425077915192 41.1027398109436 C 84.75866776704788 40.93501627445221 84.62088698148727 40.79534614086151 84.44852340221405 40.68412733078003 C 84.27606809139252 40.571117877960205 84.07976257801056 40.478004455566406 83.86034071445465 40.40319538116455 C 83.64091885089874 40.328386306762695 83.41406673192978 40.25357723236084 83.18143552541733 40.178171277046204 C 82.94797873497009 40.10336220264435 82.72195219993591 40.01880407333374 82.50170475244522 39.92310416698456 C 82.28228288888931 39.82820010185242 82.08680295944214 39.70723223686218 81.9143476486206 39.560996413230896 C 81.74198406934738 39.41476058959961 81.60337769985199 39.230125427246094 81.49862027168274 39.00908052921295 C 81.39386284351349 38.78803563117981 81.34111720323563 38.510486006736755 81.34111720323563 38.17742645740509 C 81.34111720323563 37.83004176616669 81.40707218647003 37.5266273021698 81.53898215293884 37.26857578754425 C 81.67098385095596 37.01012635231018 81.84674149751663 36.79564714431763 82.06616336107254 36.62533712387085 C 82.28558522462845 36.45522606372833 82.5339025259018 36.32868731021881 82.81102353334427 36.24731254577637 C 83.08823627233505 36.16593778133392 83.37205368280411 36.12495195865631 83.66238403320312 36.12495195865631 C 84.06820440292358 36.12495195865631 84.43613964319229 36.190011978149414 84.7677491903305 36.3187392950058 C 85.09853315353394 36.448262453079224 85.40620076656342 36.675873041152954 85.69001817703247 37.00356066226959 C 85.69001817703247 37.00356066226959 85.05147486925125 37.50374686717987 85.05147486925125 37.50374686717987 Z M 91.84300351142883 41.14770483970642 C 91.84300351142883 41.50941467285156 91.78035086393356 41.84227526187897 91.6548621058464 42.14887309074402 C 91.53038239479065 42.45547091960907 91.35627591609955 42.72048604488373 91.1335517168045 42.945908069610596 C 90.91000193357468 43.1701363325119 90.64526468515396 43.344624519348145 90.33759707212448 43.470964312553406 C 90.02983772754669 43.59710514545441 89.69006407260895 43.66037452220917 89.3187347650528 43.66037452220917 C 88.95419359207153 43.66037452220917 88.6175388097763 43.59710514545441 88.30996292829514 43.470964312553406 C 88.00220358371735 43.344624519348145 87.73737460374832 43.1701363325119 87.51474213600159 42.945908069610596 C 87.29110062122345 42.72048604488373 87.11708587408066 42.45547091960907 86.9925144314766 42.14887309074402 C 86.86720913648605 41.84227526187897 86.80529034137726 41.50941467285156 86.80529034137726 41.14770483970642 C 86.80529034137726 40.78718876838684 86.86720913648605 40.453930258750916 86.9925144314766 40.147332429885864 C 87.11708587408066 39.841729402542114 87.29110062122345 39.575719475746155 87.51474213600159 39.35149121284485 C 87.73737460374832 39.12706398963928 88.00220358371735 38.95197892189026 88.30996292829514 38.82544016838074 C 88.6175388097763 38.70009517669678 88.95419359207153 38.63682579994202 89.3187347650528 38.63682579994202 C 89.69006407260895 38.63682579994202 90.02983772754669 38.70009517669678 90.33759707212448 38.82544016838074 C 90.64526468515396 38.95197892189026 90.91000193357468 39.12706398963928 91.1335517168045 39.35149121284485 C 91.35627591609955 39.575719475746155 91.53038239479065 39.841729402542114 91.6548621058464 40.147332429885864 C 91.78035086393356 40.453930258750916 91.84300351142883 40.78718876838684 91.84300351142883 41.14770483970642 Z M 91.1129121184349 41.14770483970642 C 91.1129121184349 40.88268971443176 91.07089906930923 40.634387254714966 90.98586392402649 40.40319538116455 C 90.90174609422684 40.171605587005615 90.78212815523148 39.97125256061554 90.62627625465393 39.80014669895172 C 90.47124993801117 39.630831480026245 90.28310853242874 39.49613535404205 90.06359493732452 39.39705312252045 C 89.84426480531693 39.29836881160736 89.59594750404358 39.24942457675934 89.3187347650528 39.24942457675934 C 89.04161375761032 39.24942457675934 88.79329645633698 39.29836881160736 88.57387459278107 39.39705312252045 C 88.35445272922516 39.49613535404205 88.16805422306061 39.630831480026245 88.01623851060867 39.80014669895172 C 87.86442279815674 39.97125256061554 87.74563044309616 40.171605587005615 87.66151261329651 40.40319538116455 C 87.57656919956207 40.634387254714966 87.53446441888809 40.88268971443176 87.53446441888809 41.14770483970642 C 87.53446441888809 41.41371476650238 87.57656919956207 41.66221618652344 87.66151261329651 41.89380598068237 C 87.74563044309616 42.12499785423279 87.86442279815674 42.325947761535645 88.01623851060867 42.49546194076538 C 88.16805422306061 42.66676676273346 88.35445272922516 42.80126392841339 88.57387459278107 42.899351358413696 C 88.79329645633698 42.99803566932678 89.04161375761032 43.047178864479065 89.3187347650528 43.047178864479065 C 89.59594750404358 43.047178864479065 89.84426480531693 42.99803566932678 90.06359493732452 42.899351358413696 C 90.28310853242874 42.80126392841339 90.47124993801117 42.66676676273346 90.62627625465393 42.49546194076538 C 90.78212815523148 42.325947761535645 90.90174609422684 42.12499785423279 90.98586392402649 41.89380598068237 C 91.07089906930923 41.66221618652344 91.1129121184349 41.41371476650238 91.1129121184349 41.14770483970642 Z M 93.8797190785408 43.53741705417633 C 93.8797190785408 43.53741705417633 93.21072089672089 43.53741705417633 93.21072089672089 43.53741705417633 C 93.21072089672089 43.53741705417633 93.21072089672089 35.81855309009552 93.21072089672089 35.81855309009552 C 93.21072089672089 35.81855309009552 93.8797190785408 35.81855309009552 93.8797190785408 35.81855309009552 C 93.8797190785408 35.81855309009552 93.8797190785408 43.53741705417633 93.8797190785408 43.53741705417633 Z M 98.91743224859238 43.53741705417633 C 98.90431463718414 43.407893896102905 98.895967066288 43.28055930137634 98.89275646209717 43.15441846847534 C 98.88853681087494 43.02887451648712 98.88688564300537 42.90094304084778 98.88688564300537 42.77141988277435 C 98.88688564300537 42.77141988277435 98.86716336011887 42.77141988277435 98.86716336011887 42.77141988277435 C 98.79286080598831 42.90094304084778 98.69801038503647 43.02071714401245 98.58334594964981 43.12855362892151 C 98.46794766187668 43.23837971687317 98.33998215198517 43.33149313926697 98.19807344675064 43.40928661823273 C 98.05625647306442 43.48767697811127 97.90526634454727 43.548956751823425 97.74684596061707 43.59392178058624 C 97.58769172430038 43.63789200782776 97.43092250823975 43.66037452220917 97.27589619159698 43.66037452220917 C 96.66707390546799 43.66037452220917 96.21749758720398 43.49842083454132 95.92707550525665 43.17511034011841 C 95.63674515485764 42.851998805999756 95.49153411388397 42.39060986042023 95.49153411388397 41.79173934459686 C 95.49153411388397 41.79173934459686 95.49153411388397 38.75918638706207 95.49153411388397 38.75918638706207 C 95.49153411388397 38.75918638706207 96.1606240272522 38.75918638706207 96.1606240272522 38.75918638706207 C 96.1606240272522 38.75918638706207 96.1606240272522 41.40376675128937 96.1606240272522 41.40376675128937 C 96.1606240272522 41.66977667808533 96.18117189407349 41.903952956199646 96.2216255068779 42.10828518867493 C 96.26207911968231 42.31261742115021 96.33142817020416 42.483723282814026 96.42958092689514 42.623393416404724 C 96.52681636810303 42.76286458969116 96.65890979766846 42.86851251125336 96.8245769739151 42.93993926048279 C 96.98969376087189 43.01136600971222 97.19746571779251 43.047178864479065 97.44825977087021 43.047178864479065 C 97.48128312826157 43.047178864479065 97.57613354921341 43.03404748439789 97.73207718133926 43.00659096240997 C 97.88719522953033 42.9789354801178 98.05130296945572 42.90452432632446 98.22366654872894 42.781168937683105 C 98.39529627561569 42.65920627117157 98.54949700832367 42.475565910339355 98.68480104207993 42.23024785518646 C 98.8192794919014 41.98532772064209 98.88688564300537 41.644508719444275 98.88688564300537 41.2093825340271 C 98.88688564300537 41.2093825340271 98.88688564300537 38.75918638706207 98.88688564300537 38.75918638706207 C 98.88688564300537 38.75918638706207 99.55588382482529 38.75918638706207 99.55588382482529 38.75918638706207 C 99.55588382482529 38.75918638706207 99.55588382482529 42.48571288585663 99.55588382482529 42.48571288585663 C 99.55588382482529 42.615236043930054 99.56175464391708 42.77798557281494 99.57156991958618 42.975752115249634 C 99.58147692680359 43.173518657684326 99.59303510189056 43.360342383384705 99.60707002878189 43.53741705417633 C 99.60707002878189 43.53741705417633 98.91743224859238 43.53741705417633 98.91743224859238 43.53741705417633 Z M 103.58069723844528 39.371387243270874 C 103.58069723844528 39.371387243270874 102.21215426921844 39.371387243270874 102.21215426921844 39.371387243270874 C 102.21215426921844 39.371387243270874 102.21215426921844 42.18985891342163 102.21215426921844 42.18985891342163 C 102.21215426921844 42.366734623909 102.22949153184891 42.51117980480194 102.26324874162674 42.623393416404724 C 102.29718941450119 42.73660182952881 102.34415596723557 42.82295060157776 102.40515744686127 42.88423037528992 C 102.46625065803528 42.945908069610596 102.53798472881317 42.98749077320099 102.62292814254761 43.01136600971222 C 102.70704597234726 43.03563916683197 102.80033695697784 43.047178864479065 102.90179204940796 43.047178864479065 C 103.01645648479462 43.047178864479065 103.13515710830688 43.030466198921204 103.25651794672012 42.99564814567566 C 103.37778705358505 42.96222281455994 103.48997473716736 42.91765570640564 103.59060424566269 42.86353850364685 C 103.59060424566269 42.86353850364685 103.62105911970139 43.485687375068665 103.62105911970139 43.485687375068665 C 103.37109065055847 43.60207915306091 103.07094502449036 43.66037452220917 102.71952146291733 43.66037452220917 C 102.59073036909103 43.66037452220917 102.45716923475266 43.643064975738525 102.31856286525726 43.6086448431015 C 102.17995649576187 43.57482159137726 102.05382561683655 43.510557413101196 101.93906944990158 43.414459586143494 C 101.82357943058014 43.31975448131561 101.72955459356308 43.19023132324219 101.65451818704605 43.02728283405304 C 101.5802156329155 42.86353850364685 101.54315608739853 42.6490592956543 101.54315608739853 42.38404417037964 C 101.54315608739853 42.38404417037964 101.54315608739853 39.371387243270874 101.54315608739853 39.371387243270874 C 101.54315608739853 39.371387243270874 100.54007160663605 39.371387243270874 100.54007160663605 39.371387243270874 C 100.54007160663605 39.371387243270874 100.54007160663605 38.75918638706207 100.54007160663605 38.75918638706207 C 100.54007160663605 38.75918638706207 101.54315608739853 38.75918638706207 101.54315608739853 38.75918638706207 C 101.54315608739853 38.75918638706207 101.54315608739853 37.41123032569885 101.54315608739853 37.41123032569885 C 101.54315608739853 37.41123032569885 102.21215426921844 37.41123032569885 102.21215426921844 37.41123032569885 C 102.21215426921844 37.41123032569885 102.21215426921844 38.75918638706207 102.21215426921844 38.75918638706207 C 102.21215426921844 38.75918638706207 103.58069723844528 38.75918638706207 103.58069723844528 38.75918638706207 C 103.58069723844528 38.75918638706207 103.58069723844528 39.371387243270874 103.58069723844528 39.371387243270874 Z M 105.46559709310532 36.92198693752289 C 105.46559709310532 37.06484043598175 105.4153282046318 37.181232213974 105.31378138065338 37.27414667606354 C 105.21232628822327 37.365668416023254 105.10096418857574 37.41123032569885 104.97969508171082 37.41123032569885 C 104.8576003909111 37.41123032569885 104.74633002281189 37.365668416023254 104.64487493038177 37.27414667606354 C 104.54332810640335 37.181232213974 104.49223363399506 37.06484043598175 104.49223363399506 36.92198693752289 C 104.49223363399506 36.778934478759766 104.54332810640335 36.661149978637695 104.64487493038177 36.56962823867798 C 104.74633002281189 36.47750961780548 104.8576003909111 36.43154978752136 104.97969508171082 36.43154978752136 C 105.10096418857574 36.43154978752136 105.21232628822327 36.47750961780548 105.31378138065338 36.56962823867798 C 105.4153282046318 36.661149978637695 105.46559709310532 36.778934478759766 105.46559709310532 36.92198693752289 Z M 105.31378138065338 43.53741705417633 C 105.31378138065338 43.53741705417633 104.64487493038177 43.53741705417633 104.64487493038177 43.53741705417633 C 104.64487493038177 43.53741705417633 104.64487493038177 38.75918638706207 104.64487493038177 38.75918638706207 C 104.64487493038177 38.75918638706207 105.31378138065338 38.75918638706207 105.31378138065338 38.75918638706207 C 105.31378138065338 38.75918638706207 105.31378138065338 43.53741705417633 105.31378138065338 43.53741705417633 Z M 111.7200375199318 41.14770483970642 C 111.7200375199318 41.50941467285156 111.65738487243652 41.84227526187897 111.53290516138077 42.14887309074402 C 111.40741640329361 42.45547091960907 111.23340165615082 42.72048604488373 111.01067745685577 42.945908069610596 C 110.78703594207764 43.1701363325119 110.52229869365692 43.344624519348145 110.21463108062744 43.470964312553406 C 109.90687173604965 43.59710514545441 109.56792366504669 43.66037452220917 109.19586050510406 43.66037452220917 C 108.8312276005745 43.66037452220917 108.49466454982758 43.59710514545441 108.18782252073288 43.470964312553406 C 107.88006317615509 43.344624519348145 107.61450034379959 43.1701363325119 107.39177614450455 42.945908069610596 C 107.1690519452095 42.72048604488373 106.99503719806671 42.45547091960907 106.86954843997955 42.14887309074402 C 106.74424314498901 41.84227526187897 106.68241608142853 41.50941467285156 106.68241608142853 41.14770483970642 C 106.68241608142853 40.78718876838684 106.74424314498901 40.453930258750916 106.86954843997955 40.147332429885864 C 106.99503719806671 39.841729402542114 107.1690519452095 39.575719475746155 107.39177614450455 39.35149121284485 C 107.61450034379959 39.12706398963928 107.88006317615509 38.95197892189026 108.18782252073288 38.82544016838074 C 108.49466454982758 38.70009517669678 108.8312276005745 38.63682579994202 109.19586050510406 38.63682579994202 C 109.56792366504669 38.63682579994202 109.90687173604965 38.70009517669678 110.21463108062744 38.82544016838074 C 110.52229869365692 38.95197892189026 110.78703594207764 39.12706398963928 111.01067745685577 39.35149121284485 C 111.23340165615082 39.575719475746155 111.40741640329361 39.841729402542114 111.53290516138077 40.147332429885864 C 111.65738487243652 40.453930258750916 111.7200375199318 40.78718876838684 111.7200375199318 41.14770483970642 Z M 110.99003785848618 41.14770483970642 C 110.99003785848618 40.88268971443176 110.9480248093605 40.634387254714966 110.86381524801254 40.40319538116455 C 110.7788718342781 40.171605587005615 110.65925389528275 39.97125256061554 110.50331026315689 39.80014669895172 C 110.34828394651413 39.630831480026245 110.16096812486649 39.49613535404205 109.9407206773758 39.39705312252045 C 109.72129881381989 39.29836881160736 109.47307324409485 39.24942457675934 109.19586050510406 39.24942457675934 C 108.91864776611328 39.24942457675934 108.67042219638824 39.29836881160736 108.45090860128403 39.39705312252045 C 108.23148673772812 39.49613535404205 108.04591381549835 39.630831480026245 107.89336425065994 39.80014669895172 C 107.74154853820801 39.97125256061554 107.62266445159912 40.171605587005615 107.53854662179947 40.40319538116455 C 107.45442879199982 40.634387254714966 107.41241574287415 40.88268971443176 107.41241574287415 41.14770483970642 C 107.41241574287415 41.41371476650238 107.45442879199982 41.66221618652344 107.53854662179947 41.89380598068237 C 107.62266445159912 42.12499785423279 107.74154853820801 42.325947761535645 107.89336425065994 42.49546194076538 C 108.04591381549835 42.66676676273346 108.23148673772812 42.80126392841339 108.45090860128403 42.899351358413696 C 108.67042219638824 42.99803566932678 108.91864776611328 43.047178864479065 109.19586050510406 43.047178864479065 C 109.47307324409485 43.047178864479065 109.72129881381989 42.99803566932678 109.9407206773758 42.899351358413696 C 110.16096812486649 42.80126392841339 110.34828394651413 42.66676676273346 110.50331026315689 42.49546194076538 C 110.65925389528275 42.325947761535645 110.7788718342781 42.12499785423279 110.86381524801254 41.89380598068237 C 110.9480248093605 41.66221618652344 110.99003785848618 41.41371476650238 110.99003785848618 41.14770483970642 Z M 113.57448250055313 38.75918638706207 C 113.58769184350967 38.8887095451355 113.59594768285751 39.0158451795578 113.60007560253143 39.14218497276306 C 113.60337793827057 39.2681268453598 113.60502910614014 39.396257281303406 113.60502910614014 39.52518355846405 C 113.60502910614014 39.52518355846405 113.62475138902664 39.52518355846405 113.62475138902664 39.52518355846405 C 113.6990539431572 39.396257281303406 113.79390436410904 39.27668213844299 113.9085687994957 39.16705501079559 C 114.02405881881714 39.058820605278015 114.15193259716034 38.965110301971436 114.29384130239487 38.887117862701416 C 114.4357500076294 38.807931661605835 114.58664840459824 38.74724876880646 114.74506878852844 38.7034775018692 C 114.90431475639343 38.658512473106384 115.06099224090576 38.63682579994202 115.21693587303162 38.63682579994202 C 115.82484084367752 38.63682579994202 116.27441716194153 38.79818260669708 116.56483924388885 39.122089982032776 C 116.85516959428787 39.44460463523865 117.00038063526154 39.9063915014267 117.00038063526154 40.50486409664154 C 117.00038063526154 40.50486409664154 117.00038063526154 43.53741705417633 117.00038063526154 43.53741705417633 C 117.00038063526154 43.53741705417633 116.33129072189331 43.53741705417633 116.33129072189331 43.53741705417633 C 116.33129072189331 43.53741705417633 116.33129072189331 40.893433570861816 116.33129072189331 40.893433570861816 C 116.33129072189331 40.36181163787842 116.24056822061539 39.95553469657898 116.05747205018997 39.67281210422516 C 115.87520146369934 39.39048743247986 115.53781282901764 39.24942457675934 115.04448056221008 39.24942457675934 C 115.01063162088394 39.24942457675934 114.9157811999321 39.263550758361816 114.76066315174103 39.29001247882843 C 114.60481125116348 39.317270040512085 114.44143736362457 39.39207911491394 114.26907378435135 39.514439702034 C 114.09661847352982 39.63739717006683 113.94241774082184 39.82103753089905 113.80793929100037 40.06595766544342 C 113.67272698879242 40.31107676029205 113.60502910614014 40.65109992027283 113.60502910614014 41.08702194690704 C 113.60502910614014 41.08702194690704 113.60502910614014 43.53741705417633 113.60502910614014 43.53741705417633 C 113.60502910614014 43.53741705417633 112.93603092432022 43.53741705417633 112.93603092432022 43.53741705417633 C 112.93603092432022 43.53741705417633 112.93603092432022 39.810890555381775 112.93603092432022 39.810890555381775 C 112.93603092432022 39.68196427822113 112.93098568916321 39.5184189081192 112.92034482955933 39.32065236568451 C 112.91043782234192 39.12388062477112 112.89887964725494 38.93586313724518 112.88484472036362 38.75918638706207 C 112.88484472036362 38.75918638706207 113.57448250055313 38.75918638706207 113.57448250055313 38.75918638706207 Z M 44.982492446899414 40.72610795497894 C 44.982492446899414 40.72610795497894 1.9985566139221191 40.72610795497894 1.9985566139221191 40.72610795497894 C 1.9985566139221191 40.72610795497894 1.9985566139221191 39.37854981422424 1.9985566139221191 39.37854981422424 C 1.9985566139221191 39.37854981422424 44.982492446899414 39.37854981422424 44.982492446899414 39.37854981422424 C 44.982492446899414 39.37854981422424 44.982492446899414 40.72610795497894 44.982492446899414 40.72610795497894 Z"/></g></svg>