<svg version="1.1" xmlns="http://www.w3.org/2000/svg" xmlns:xlink="http://www.w3.org/1999/xlink" width="18" height="21"><defs/><g><path fill="rgb(120,120,120)" stroke="none" paint-order="stroke fill markers" fill-rule="evenodd" d=" M 15.982549846172333 6.376875162124634 C 15.974018812179565 5.918072700500488 15.965854704380035 5.4841402769088745 15.965854704380035 5.06512987613678 C 15.965854704380035 4.73624849319458 15.704786717891693 4.4698406457901 15.38262552022934 4.4698406457901 C 12.888352990150452 4.4698406457901 10.989326477050781 3.7382636070251465 9.40631514787674 2.168466806411743 C 9.179921686649323 1.9436416625976562 8.81960016489029 1.9436416625976562 8.593206703662872 2.168466806411743 C 7.010378837585449 3.7382636070251465 5.111627519130707 4.4698406457901 2.6175384521484375 4.4698406457901 C 2.2954689860343933 4.4698406457901 2.0343092679977417 4.73624849319458 2.0343092679977417 5.06512987613678 C 2.0343092679977417 5.4841402769088745 2.026236891746521 5.918072700500488 2.0176141262054443 6.3774720430374146 C 1.9377159476280212 10.648552894592285 1.8281884789466858 16.49838376045227 8.808775842189789 18.96688425540924 C 8.870602905750275 18.98896884918213 8.93518191576004 18.999911665916443 8.999760925769806 18.999911665916443 C 9.064248204231262 18.999911665916443 9.128918945789337 18.98896884918213 9.190746009349823 18.96688425540924 C 16.171792030334473 16.49838376045227 16.062448024749756 10.648154973983765 15.982549846172333 6.376875162124634 Z M 8.999852657318115 17.773520350456238 C 3.013084888458252 15.554516077041626 3.103623926639557 10.694114804267883 3.1838890314102173 6.4001535177230835 C 3.1887508034706116 6.142300963401794 3.193429112434387 5.892605781555176 3.1966397166252136 5.647685647010803 C 5.532675325870514 5.547011733055115 7.400696575641632 4.824984788894653 8.999852657318115 3.403413414955139 C 10.599100470542908 4.824984788894653 12.467396914958954 5.547011733055115 14.803524255752563 5.647685647010803 C 14.8068265914917 5.8924068212509155 14.811504900455475 6.141903042793274 14.81627494096756 6.399556636810303 C 14.89654004573822 10.693716883659363 14.986987352371216 15.554516077041626 8.999852657318115 17.773520350456238 Z M 11.008223176002502 8.432731986045837 C 11.008223176002502 8.432731986045837 8.19325715303421 11.304723978042603 8.19325715303421 11.304723978042603 C 8.19325715303421 11.304723978042603 6.992032527923584 10.079128503799438 6.992032527923584 10.079128503799438 C 6.764263093471527 9.846742868423462 6.39495187997818 9.846742868423462 6.167274177074432 10.079128503799438 C 5.9395047426223755 10.311514139175415 5.9395047426223755 10.688344955444336 6.167274177074432 10.920531630516052 C 6.167274177074432 10.920531630516052 7.78083211183548 12.566729187965393 7.78083211183548 12.566729187965393 C 7.894762694835663 12.683120965957642 8.044009923934937 12.740819454193115 8.19325715303421 12.740819454193115 C 8.342504382133484 12.740819454193115 8.491751611232758 12.683120965957642 8.605590462684631 12.566729187965393 C 8.605590462684631 12.566729187965393 11.832889795303345 9.274533033370972 11.832889795303345 9.274533033370972 C 12.060750961303711 9.041749477386475 12.060750961303711 8.665117621421814 11.832981526851654 8.432731986045837 C 11.605212092399597 8.20034635066986 11.23599261045456 8.2001473903656 11.008223176002502 8.432731986045837 Z"/></g></svg>